<?xml version="1.0" encoding="utf-8"?>
<!-- Generator: Adobe Illustrator 21.0.0, SVG Export Plug-In . SVG Version: 6.00 Build 0)  -->
<svg version="1.1" id="Layer_1" xmlns="http://www.w3.org/2000/svg" xmlns:xlink="http://www.w3.org/1999/xlink" x="0px" y="0px"
	 width="799.3px" height="270px" viewBox="0 0 799.3 270" style="enable-background:new 0 0 799.3 270;" xml:space="preserve">
<style type="text/css">
	.st0{fill:#1B4297;}
	.st1{fill:#FFFFFF;}
</style>
<g>
	<polygon class="st0" points="0,0 799.3,0 799.3,270 0,270 	"/>
	<path class="st1" d="M588.1,38.9v183.8h174V38.9H588.1z M750.1,210h-150V51.5h150V210z"/>
	<path class="st1" d="M645.4,89.6v30.1L619,135.9V172l29.3,18.1l0,0c0.1,0,26.9-16,26.9-16l25.9,16l30-18.3v-35.9l-26.4-16.2V89.6
		l-29.5-18L645.4,89.6z M645.4,134.3V156l17.7,10.8l-14.5,8.9L631,164.9v-21.7L645.4,134.3z M675.2,86l17.6,10.8c0,0,0,51.7,0,51.8
		c-0.1,0.1-17.5,10.7-17.6,10.7c-0.1-0.1-17.7-10.7-17.9-10.7c0-0.1,0-51.8,0-51.8L675.2,86z M704.7,156L704.7,156v-21.7l14.5,8.8
		v21.7l-17.7,10.8l-14.4-8.9L704.7,156z"/>
	<g>
		<path class="st1" d="M96.7,132h9.4v-8.2h-9.4V132z M410.8,52.8h-9.4V61h9.4V52.8z M217.5,126.2h9.4V118h-9.4V126.2z M247.9,102
			C247.9,102.1,247.9,101.9,247.9,102L247.9,102z M80.4,132h9.4v-8.2h-9.4V132z M217.1,70.8c-5.8,0-11.4,1.2-15.9,3.5v16h9.4v-12
			c0,0,2.5-1.4,7-1.4c9.7,0,19.9,9.1,19.9,25.7l0,0c0,0.2,0,1.4-0.3,2.4h-43.4v-2.2c0-18.8-12.7-31.9-30.8-31.9
			c-5.8,0-11.4,1.2-15.9,3.5v16h9.4v-12c0,0,2.5-1.4,7-1.4c9.6,0,19.9,9.1,19.9,25.7v2.4h-45.7V67.3h-8.6c-23,0-23.7,11.8-23.7,25.6
			v12.3c0,6.8-2.4,8.1-6.1,8.1H92c-4.7,0-12.5-0.7-12.5-17.7c0-14.3,6.3-20.6,18.8-20.5v-5.6c-9.7,0-15.7,1.8-21.3,7.3
			c-4.8,4.7-6.9,11.1-6.9,19.1c0,17.6,7.8,23.5,18.4,23.5h13.3c8.4,0,13.1-5.3,13.1-15V91.8c0-11.9,1.8-18.4,13.3-18.4v37.8h118.6
			c1-4.1,1.1-8.9,1.1-8.9C247.5,83.7,235,70.8,217.1,70.8z M387.7,81.7c0,9.3,6.5,15.3,17.5,15.3h6.7v0.9c0,4.6-2.1,7-6.2,7h-28.5
			c-11.8,0-16.1-3.3-16.1-12.9V73.6h-9.4v19.9c0,13.4,6.2,17.4,24.1,17.4H408c4.3,0,7.6-1.5,10-4.6c2.1-2.7,3.2-6.1,3.2-10.2v-29
			h-14.6C393.7,67.1,387.7,72,387.7,81.7z M411.6,73.2v18.4h-3.9c-2.9,0-10.7-0.8-10.7-9.4c0-5.9,3.4-9,10.3-9H411.6z M257,110.9
			h9.4V47.3H257V110.9z M547.2,78.9c-8.6-7.7-25.3-4.9-30.6-3.9v30h-9c0.2-0.8,0.4-2.9,0.4-2.9c1.2-15.9-8-24.8-21-24.8
			c-10.1,0-19.3,6.5-25.9,15.4l-1.4,2.1V79h-9.4v17.2c0,6-2,8.7-6.3,8.7h-4.4V73.6h-9.5v37.6c0,5.4,0,8.1-1.6,11.2
			c-0.8,1.6-2.4,3-4.3,3.6c0,0.6,0,2,0,3c10.7-0.2,15.4-5.7,15.4-18.1h91.5c12.5,0,21.3-7.3,21.3-18.5
			C552.4,86.7,550.9,82.2,547.2,78.9z M498.8,101.5c0,0.1-0.4,3.5-0.4,3.5h-36.6l0.7-1.2c6.9-13.5,15.4-19.8,24.9-19.4
			C495.7,84.7,499.6,91.9,498.8,101.5z M529.5,104.9h-3.4V80.4c0,0,1.1-0.4,3.3-0.4c8.7,0,13.5,4.6,13.5,12.5
			C542.9,100.3,537.3,104.9,529.5,104.9z M313,110.9h9.4V47.3H313V110.9z M294.5,96c0,7.4-3.4,8.9-6.3,8.9h-3.3V73.6h-9.4v37.6
			c0,5.4,0,8.1-1.6,11.2c-0.8,1.6-2.5,3-4.3,3.6c0,0.6,0,2,0,3c10.7-0.2,15.3-5.7,15.3-18.1h5.6c4.4,0,7.8-1.5,10.2-4.7
			c2.2-2.8,3.3-6.3,3.3-10.4c0,0,0-45.7,0-48.4h-9.4C294.5,50,294.5,96,294.5,96z"/>
		<rect x="139.4" y="150.6" class="st1" width="9.4" height="63.6"/>
		<path class="st1" d="M101,153.7l-23.3,60.4h8.8l6.1-16.9h22.6l5.4,16.9h10.9L110,153.7H101z M104.4,164.3l8.8,26.8H94.8
			L104.4,164.3z"/>
		<path class="st1" d="M381.3,153.7v60.4h17.8c13.1,0,21.6-6.9,21.6-17.5c0-8.9-7.6-14.1-14.7-14.5v-1.5c1.9-0.5,11-3.7,11-14.5
			c0-8-6.2-12.4-16.1-12.4H381.3z M390.8,159.7h6.9c6.1,0,9.7,3.3,9.7,8.7c0,6.4-5,11.2-12.2,11.2h-4.5v-19.9H390.8z M390.8,185.6
			h8.2c7.7,0,12.3,4.2,12.3,11.2c0,6.9-4.8,11.4-12.3,11.4h-8.3L390.8,185.6L390.8,185.6z"/>
		<polygon class="st1" points="522.8,150.6 522.8,214.1 532.3,214.1 532.3,189 549.9,214.9 559.1,211.4 542.8,189.4 555.3,173.7 
			546.9,169.5 532.3,188.8 532.3,150.6 		"/>
		<path class="st1" d="M484.4,176.4l-1.3,1.5v-6.5h-9.3v42.7h9.4v-25.6c0-7.2,4.1-11.9,10.5-11.9c5.9,0,9.4,3.9,9.4,11.1v26.4h9.4
			v-27.7c0-10.6-4.8-16-14.3-16C492.8,170.3,487.9,172.5,484.4,176.4z"/>
		<rect x="341" y="171.4" class="st1" width="9.4" height="42.7"/>
		<rect x="341" y="156" class="st1" width="9.4" height="8.2"/>
		<rect x="272.1" y="156" class="st1" width="9.4" height="8.2"/>
		<path class="st1" d="M291.9,150.6v63.6h9.4v-25.6c0-7.2,4.1-11.9,10.5-11.9c5.9,0,9.4,3.9,9.4,11.1v26.4h9.4v-27.7
			c0-10.6-4.8-16-14.3-16c-5.4,0-10.4,2.1-13.8,6l-1.3,1.5v-27.3L291.9,150.6L291.9,150.6z"/>
		<path class="st1" d="M179.8,153.7v60.4h9.4v-25.6h7.9c0,0,11.8,25.5,12.3,26.5c0.9-0.2,9.1-1.8,10.8-2.1
			c-1-1.8-13.8-26.2-13.8-26.2l0.6-0.4c6.4-4,9.5-9.7,9.5-17.3c0-9.7-6.7-15.4-18-15.4L179.8,153.7L179.8,153.7z M189.2,159.7h7.8
			c6.4,0,10.2,4.1,10.2,10.5c0,5.8-3.6,12.4-11.5,12.4h-6.4v-22.9H189.2z"/>
		<path class="st1" d="M272.1,171.4v43.1c0,4.9-0.7,9-1.6,11.2c-0.8,1.7-2.5,3-4.3,3.6c0,0.6,0,2,0,3c10.7-0.2,15.3-5.7,15.3-18.1
			v-42.7L272.1,171.4L272.1,171.4z"/>
		<path class="st1" d="M447,170.3c-5.9,0-10.6,1.7-15.1,5.4c0.6,0.9,2.2,3.3,2.8,4.2c3.4-2.9,6.8-4.2,10.9-4.2
			c4.3,0,7.3,3.3,7.9,7.5l0.1,0.7l-10,3.1c-10.2,3.1-15,8-15,15.4c0,7.3,4.7,12.7,11.2,12.7c8.9,0,14-8.4,14-8.4v7.4h9.6l0,0V186
			C463.4,175.6,457.9,170.3,447,170.3z M449.8,205.8c-1.8,2-3.9,3.1-6,3.1c-3.3,0-5.8-3.2-5.8-7.4c0-5.4,2.9-9.1,8.8-11l6.2-2.1
			l1-0.3l0.1,1C454.6,198.8,451.6,203.8,449.8,205.8z"/>
		<path class="st1" d="M245.3,170.3c-5.9,0-10.6,1.7-15.1,5.4c0.6,0.9,2.1,3.3,2.7,4.2c3.4-2.9,6.8-4.2,10.9-4.2
			c4.3,0,7.3,3.3,7.9,7.5l0.1,0.7l-10,3.1c-10.2,3.1-15,8-15,15.4c0,7.3,4.7,12.7,11.2,12.7c8.9,0,14-8.4,14-8.4v7.4h9.6l0,0V186
			C261.8,175.6,256.2,170.3,245.3,170.3z M248.1,205.8c-1.8,2-3.9,3.1-6,3.1c-3.2,0-5.8-3.2-5.8-7.4c0-5.4,3-9.1,8.8-11l6.2-2.1
			l1-0.3l0.1,1C253,198.8,249.9,203.8,248.1,205.8z"/>
	</g>
</g>
</svg>
