<svg width="47" height="13" viewBox="0 0 47 13" fill="none" xmlns="http://www.w3.org/2000/svg">
<rect width="47" height="13" rx="6.5" fill="#099806"/>
<path d="M13.45 9H11.8C11.7933 9.78667 11.65 10.3967 11.37 10.83C11.0967 11.2633 10.6833 11.48 10.13 11.48C10.0433 11.48 9.8 11.4667 9.4 11.44V10.24L9.74 10.26C9.98 10.26 10.16 10.1633 10.28 9.97C10.4 9.78333 10.46 9.51667 10.46 9.17V4H11.8V7.78H13.45V9ZM19.0231 4.14V9H13.4531V7.78H14.5231C14.4098 7.37333 14.3531 6.91333 14.3531 6.4C14.3531 5.79333 14.4465 5.31667 14.6331 4.97C14.8265 4.62333 15.1165 4.37667 15.5031 4.23C15.8898 4.08333 16.3998 4.01 17.0331 4.01C17.5931 4.01 18.0831 4.03333 18.5031 4.08L19.0231 4.14ZM15.7131 6.65C15.7131 6.90333 15.7298 7.11 15.7631 7.27C15.7965 7.42333 15.8431 7.59333 15.9031 7.78H17.6831V5.23C17.3898 5.21 17.1598 5.2 16.9931 5.2C16.6331 5.2 16.3631 5.24 16.1831 5.32C16.0098 5.4 15.8865 5.54 15.8131 5.74C15.7465 5.94 15.7131 6.24333 15.7131 6.65ZM16.1731 1.77H17.4031V3.07H16.1731V1.77ZM25.7773 9H24.5173C24.3707 10.6533 23.6773 11.48 22.4373 11.48C22.0773 11.48 21.4973 11.4167 20.6973 11.29V10.08C21.4973 10.2 22.0373 10.26 22.3173 10.26C22.5307 10.26 22.6973 10.2233 22.8173 10.15C22.9373 10.0767 23.024 9.95 23.0773 9.77C23.1373 9.59 23.1673 9.33333 23.1673 9H22.0073C20.6273 9 19.9373 8.22 19.9373 6.66C19.9373 5.86667 20.024 5.26333 20.1973 4.85C20.3773 4.43667 20.6273 4.16 20.9473 4.02C21.274 3.87333 21.7007 3.8 22.2273 3.8C22.614 3.8 23.024 3.82667 23.4573 3.88C23.8907 3.92667 24.254 3.98333 24.5473 4.05V7.78H25.7773V9ZM21.2773 6.58C21.2773 6.92 21.3507 7.20667 21.4973 7.44C21.644 7.66667 21.9373 7.78 22.3773 7.78H23.2073V5.07C22.954 5.03667 22.7107 5.02 22.4773 5.02C22.1973 5.02 21.974 5.06 21.8073 5.14C21.6407 5.21333 21.5107 5.36333 21.4173 5.59C21.324 5.81 21.2773 6.14 21.2773 6.58ZM30.1073 7.78V9H25.7773V7.78H27.2673V4H28.6073V7.78H30.1073ZM26.6473 1.82H27.6773V3.07H26.6473V1.82ZM28.1673 1.82H29.1973V3.07H28.1673V1.82ZM33.8538 3.91C34.5404 3.91 35.0671 4.01 35.4338 4.21C35.8071 4.41 36.0571 4.69333 36.1838 5.06C36.3171 5.42667 36.3838 5.90667 36.3838 6.5V9H30.0938V7.78H31.6538C31.5604 7.3 31.5138 6.87667 31.5138 6.51C31.5138 6.14333 31.5504 5.75 31.6238 5.33C31.6971 4.91 31.7804 4.54667 31.8738 4.24C32.0538 4.15333 32.3204 4.07667 32.6738 4.01C33.0271 3.94333 33.4204 3.91 33.8538 3.91ZM32.8138 6.51C32.8138 6.73667 32.8271 6.97 32.8538 7.21C32.8871 7.44333 32.9204 7.63333 32.9538 7.78H35.0438V6.47C35.0438 6.00333 34.9504 5.66 34.7638 5.44C34.5838 5.22 34.2338 5.11 33.7138 5.11C33.4604 5.11 33.2071 5.13667 32.9538 5.19C32.8604 5.69 32.8138 6.13 32.8138 6.51Z" fill="#E2E2E2"/>
</svg>
