<svg width="29" height="26" viewBox="0 0 29 26" fill="none" xmlns="http://www.w3.org/2000/svg">
<path d="M8.25 6.17529V3.67529C8.25 3.34377 8.3817 3.02583 8.61612 2.79141C8.85054 2.55699 9.16848 2.42529 9.5 2.42529H25.75C26.0815 2.42529 26.3995 2.55699 26.6339 2.79141C26.8683 3.02583 27 3.34377 27 3.67529V14.9253C27 15.2568 26.8683 15.5748 26.6339 15.8092C26.3995 16.0436 26.0815 16.1753 25.75 16.1753H24.5" stroke="#447BAF" stroke-width="3" stroke-linecap="round" stroke-linejoin="round"/>
<path d="M19.5 9.92529H3.25C2.55964 9.92529 2 10.4849 2 11.1753V22.4253C2 23.1156 2.55964 23.6753 3.25 23.6753H19.5C20.1904 23.6753 20.75 23.1156 20.75 22.4253V11.1753C20.75 10.4849 20.1904 9.92529 19.5 9.92529Z" stroke="#16A79E" stroke-width="3" stroke-linecap="round" stroke-linejoin="round"/>
<path d="M2 15.5503H20.75" stroke="#16A79E" stroke-width="3" stroke-linecap="round" stroke-linejoin="round"/>
<path d="M20.75 12.4253V19.9253" stroke="#16A79E" stroke-width="3" stroke-linecap="round" stroke-linejoin="round"/>
<path d="M2 12.4253V19.9253" stroke="#16A79E" stroke-width="3" stroke-linecap="round" stroke-linejoin="round"/>
<path d="M6.37506 19.3003H11.3751" stroke="#16A79E" stroke-width="3" stroke-linecap="round" stroke-linejoin="round"/>
<path d="M15.125 19.3003H16.375" stroke="#16A79E" stroke-width="3" stroke-linecap="round" stroke-linejoin="round"/>
</svg>
