<svg width="17" height="23" viewBox="0 0 17 23" fill="none" xmlns="http://www.w3.org/2000/svg">
<path d="M7.55556 23V20.1039H6.61111V23H4.72222V20.1039H0.0292777L0.5015 17.25H1.52056C2.35544 17.25 2.83333 16.4345 2.83333 15.6141V7.0955C2.83333 6.29721 2.37528 5.75 1.54417 5.75H0V2.875H4.72222V0H6.61111V2.875H7.55556V0H9.44444V2.92579C13.5197 3.06571 15.1338 4.63258 15.5966 6.39975C16.1443 8.48892 14.7872 10.2427 13.6198 10.6701C15.0374 11.0362 17 12.099 17 14.5513C17 17.8892 14.4613 20.125 9.44444 20.125V23H7.55556ZM6.61111 12.4526V17.25C10.3596 17.25 12.9276 16.8906 12.9276 14.8388C12.9276 12.6385 10.1528 12.4526 6.61111 12.4526ZM6.61111 10.5417C8.69928 10.5417 11.8792 10.3922 11.8792 8.14583C11.8792 6.22917 9.91667 5.75 6.61111 5.75V10.5417Z" fill="#FFA800"/>
</svg>
