<svg width="23" height="23" viewBox="0 0 23 23" fill="none" xmlns="http://www.w3.org/2000/svg">
<path d="M3.28571 0C2.41429 0 1.57855 0.346173 0.962363 0.962363C0.346173 1.57855 0 2.41429 0 3.28571V13.1379C0 14.0094 0.346173 14.8451 0.962363 15.4613C1.57855 16.0775 2.41429 16.4236 3.28571 16.4236H4.92857V18.0846H4.117C3.89914 18.0846 3.69021 18.1711 3.53616 18.3252C3.38211 18.4792 3.29557 18.6881 3.29557 18.906C3.29557 19.1239 3.38211 19.3328 3.53616 19.4868C3.69021 19.6409 3.89914 19.7274 4.117 19.7274H6.57143V14.7824H3.28571C2.85 14.7824 2.43213 14.6093 2.12404 14.3012C1.81594 13.9932 1.64286 13.5753 1.64286 13.1396V3.28571C1.64286 2.85 1.81594 2.43213 2.12404 2.12404C2.43213 1.81594 2.85 1.64286 3.28571 1.64286H16.4286C16.8643 1.64286 17.2822 1.81594 17.5902 2.12404C17.8983 2.43213 18.0714 2.85 18.0714 3.28571V9.85714H19.7143V3.28571C19.7143 2.41429 19.3681 1.57855 18.7519 0.962363C18.1357 0.346173 17.3 0 16.4286 0H3.28571ZM8.21429 13.9643C8.21429 13.3107 8.47392 12.6839 8.93606 12.2218C9.3982 11.7596 10.025 11.5 10.6786 11.5H20.5357C21.1893 11.5 21.8161 11.7596 22.2782 12.2218C22.7404 12.6839 23 13.3107 23 13.9643V20.5357C23 21.1893 22.7404 21.8161 22.2782 22.2782C21.8161 22.7404 21.1893 23 20.5357 23H10.6786C10.025 23 9.3982 22.7404 8.93606 22.2782C8.47392 21.8161 8.21429 21.1893 8.21429 20.5357V13.9643ZM11.5 20.5357C11.5 20.7536 11.5865 20.9625 11.7406 21.1166C11.8946 21.2706 12.1036 21.3571 12.3214 21.3571H18.8929C19.1107 21.3571 19.3196 21.2706 19.4737 21.1166C19.6277 20.9625 19.7143 20.7536 19.7143 20.5357C19.7143 20.3179 19.6277 20.1089 19.4737 19.9549C19.3196 19.8008 19.1107 19.7143 18.8929 19.7143H12.3214C12.1036 19.7143 11.8946 19.8008 11.7406 19.9549C11.5865 20.1089 11.5 20.3179 11.5 20.5357ZM12.3214 14.7857C12.5393 14.7857 12.7482 14.6992 12.9023 14.5451C13.0563 14.3911 13.1429 14.1821 13.1429 13.9643C13.1429 13.7464 13.0563 13.5375 12.9023 13.3834C12.7482 13.2294 12.5393 13.1429 12.3214 13.1429C12.1036 13.1429 11.8946 13.2294 11.7406 13.3834C11.5865 13.5375 11.5 13.7464 11.5 13.9643C11.5 14.1821 11.5865 14.3911 11.7406 14.5451C11.8946 14.6992 12.1036 14.7857 12.3214 14.7857ZM14.7857 17.25C14.7857 17.0321 14.6992 16.8232 14.5451 16.6692C14.3911 16.5151 14.1821 16.4286 13.9643 16.4286C13.7464 16.4286 13.5375 16.5151 13.3834 16.6692C13.2294 16.8232 13.1429 17.0321 13.1429 17.25C13.1429 17.4679 13.2294 17.6768 13.3834 17.8308C13.5375 17.9849 13.7464 18.0714 13.9643 18.0714C14.1821 18.0714 14.3911 17.9849 14.5451 17.8308C14.6992 17.6768 14.7857 17.4679 14.7857 17.25ZM15.6071 14.7857C15.825 14.7857 16.0339 14.6992 16.188 14.5451C16.342 14.3911 16.4286 14.1821 16.4286 13.9643C16.4286 13.7464 16.342 13.5375 16.188 13.3834C16.0339 13.2294 15.825 13.1429 15.6071 13.1429C15.3893 13.1429 15.1804 13.2294 15.0263 13.3834C14.8723 13.5375 14.7857 13.7464 14.7857 13.9643C14.7857 14.1821 14.8723 14.3911 15.0263 14.5451C15.1804 14.6992 15.3893 14.7857 15.6071 14.7857ZM18.0714 17.25C18.0714 17.0321 17.9849 16.8232 17.8308 16.6692C17.6768 16.5151 17.4679 16.4286 17.25 16.4286C17.0321 16.4286 16.8232 16.5151 16.6692 16.6692C16.5151 16.8232 16.4286 17.0321 16.4286 17.25C16.4286 17.4679 16.5151 17.6768 16.6692 17.8308C16.8232 17.9849 17.0321 18.0714 17.25 18.0714C17.4679 18.0714 17.6768 17.9849 17.8308 17.8308C17.9849 17.6768 18.0714 17.4679 18.0714 17.25ZM18.8929 14.7857C19.1107 14.7857 19.3196 14.6992 19.4737 14.5451C19.6277 14.3911 19.7143 14.1821 19.7143 13.9643C19.7143 13.7464 19.6277 13.5375 19.4737 13.3834C19.3196 13.2294 19.1107 13.1429 18.8929 13.1429C18.675 13.1429 18.4661 13.2294 18.312 13.3834C18.158 13.5375 18.0714 13.7464 18.0714 13.9643C18.0714 14.1821 18.158 14.3911 18.312 14.5451C18.4661 14.6992 18.675 14.7857 18.8929 14.7857Z" fill="#16A79E"/>
</svg>
