<svg width="53" height="47" viewBox="0 0 53 47" fill="none" xmlns="http://www.w3.org/2000/svg">
<path d="M47.597 7.83358C47.3963 7.81524 47.194 7.81524 46.9933 7.83358H5.77112C5.50692 7.83719 5.24447 7.87232 4.99084 7.93802L26.2645 26.725L47.597 7.83358Z" fill="#447BAF"/>
<path d="M49.7759 9.64795L28.3403 28.5785C27.7886 29.0648 27.0424 29.3378 26.2645 29.3378C25.4866 29.3378 24.7403 29.0648 24.1887 28.5785L2.94449 9.79156C2.87918 10.0044 2.84455 10.2238 2.84143 10.4443V36.5555C2.84143 37.248 3.15165 37.9121 3.70384 38.4018C4.25603 38.8915 5.00496 39.1666 5.78588 39.1666H47.0081C47.789 39.1666 48.5379 38.8915 49.0901 38.4018C49.6423 37.9121 49.9525 37.248 49.9525 36.5555V10.4443C49.9408 10.1723 49.8812 9.90362 49.7759 9.64795ZM7.80282 36.5555H5.75643V34.6885L16.4595 25.2755L18.5353 27.1163L7.80282 36.5555ZM46.9787 36.5555H44.9175L34.185 27.1163L36.2609 25.2755L46.9639 34.6885L46.9787 36.5555Z" fill="#16A79E"/>
</svg>
