<svg width="55" height="53" viewBox="0 0 55 53" fill="none" xmlns="http://www.w3.org/2000/svg">
<path d="M26.9958 22.5692C26.67 22.2766 26.2391 22.1173 25.7938 22.1249C25.3485 22.1325 24.9237 22.3063 24.6088 22.6098C24.2939 22.9132 24.1135 23.3226 24.1056 23.7517C24.0978 24.1808 24.2631 24.596 24.5667 24.91L26.2167 26.5L24.5667 28.09C24.3978 28.2416 24.2624 28.4245 24.1684 28.6277C24.0745 28.8308 24.024 29.0501 24.0199 29.2725C24.0158 29.4949 24.0583 29.7158 24.1447 29.922C24.2312 30.1283 24.3598 30.3156 24.523 30.4729C24.6862 30.6302 24.8807 30.7541 25.0947 30.8374C25.3087 30.9207 25.5379 30.9617 25.7687 30.9577C25.9995 30.9538 26.2271 30.9051 26.4379 30.8146C26.6487 30.7241 26.8385 30.5936 26.9958 30.4308L28.6458 28.8408L30.2958 30.4308C30.6186 30.7413 31.056 30.9154 31.512 30.915C31.968 30.9146 32.4052 30.7396 32.7273 30.4286C33.0494 30.1176 33.2301 29.6961 33.2297 29.2567C33.2293 28.8173 33.0477 28.396 32.725 28.0856L31.0773 26.5L32.7273 24.91C32.8914 24.7572 33.0222 24.5743 33.1122 24.3722C33.2022 24.1701 33.2495 23.9528 33.2514 23.7328C33.2532 23.5129 33.2096 23.2949 33.1231 23.0913C33.0366 22.8878 32.9089 22.703 32.7474 22.5475C32.586 22.3921 32.394 22.2692 32.1827 22.186C31.9715 22.1028 31.7451 22.061 31.5169 22.0631C31.2887 22.0651 31.0632 22.1109 30.8535 22.1978C30.6439 22.2847 30.4543 22.4109 30.2958 22.5692L28.6458 24.1592L26.9958 22.5692Z" fill="#447BAF"/>
<path d="M11.9625 22.5691C12.2848 22.259 12.7216 22.0848 13.1771 22.0848C13.6326 22.0848 14.0694 22.259 14.3917 22.5691L16.0417 24.1591L17.6917 22.5691C17.849 22.4064 18.0388 22.2759 18.2496 22.1854C18.4605 22.0948 18.6881 22.0462 18.9188 22.0422C19.1496 22.0383 19.3788 22.0792 19.5929 22.1625C19.8069 22.2458 20.0013 22.3698 20.1645 22.5271C20.3277 22.6844 20.4564 22.8717 20.5428 23.0779C20.6293 23.2842 20.6717 23.5051 20.6676 23.7275C20.6636 23.9498 20.613 24.1692 20.5191 24.3723C20.4252 24.5755 20.2897 24.7583 20.1209 24.91L18.4731 26.5L20.1231 28.0856C20.283 28.2394 20.4097 28.4221 20.4963 28.6231C20.5828 28.8242 20.6274 29.0397 20.6275 29.2574C20.6276 29.4751 20.5833 29.6906 20.4969 29.8918C20.4106 30.0929 20.2839 30.2757 20.1243 30.4297C19.9646 30.5837 19.7751 30.7059 19.5664 30.7893C19.3578 30.8727 19.1341 30.9156 18.9082 30.9157C18.6823 30.9158 18.4586 30.8731 18.2499 30.7899C18.0412 30.7067 17.8515 30.5847 17.6917 30.4308L16.0417 28.8408L14.3917 30.4308C14.0659 30.7234 13.6349 30.8826 13.1897 30.8751C12.7444 30.8675 12.3195 30.6937 12.0046 30.3902C11.6897 30.0868 11.5094 29.6774 11.5015 29.2483C11.4936 28.8192 11.6589 28.4039 11.9625 28.09L13.6125 26.5L11.9625 24.91C11.6407 24.5994 11.4599 24.1785 11.4599 23.7396C11.4599 23.3006 11.6407 22.8797 11.9625 22.5691Z" fill="#447BAF"/>
<path d="M37.8125 29.8125C37.3567 29.8125 36.9195 29.987 36.5972 30.2976C36.2748 30.6082 36.0938 31.0295 36.0938 31.4688C36.0938 31.908 36.2748 32.3293 36.5972 32.6399C36.9195 32.9505 37.3567 33.125 37.8125 33.125H41.8229C42.2788 33.125 42.7159 32.9505 43.0383 32.6399C43.3606 32.3293 43.5417 31.908 43.5417 31.4688C43.5417 31.0295 43.3606 30.6082 43.0383 30.2976C42.7159 29.987 42.2788 29.8125 41.8229 29.8125H37.8125Z" fill="#447BAF"/>
<path d="M12.0313 11.0415C10.056 11.0415 8.16154 11.7977 6.76479 13.1436C5.36803 14.4896 4.58334 16.3151 4.58334 18.2186V34.7811C4.58334 36.6846 5.36803 38.5101 6.76479 39.8561C8.16154 41.202 10.056 41.9582 12.0313 41.9582H42.9688C43.9468 41.9582 44.9153 41.7725 45.819 41.4119C46.7226 41.0512 47.5436 40.5225 48.2352 39.8561C48.9268 39.1896 49.4754 38.3984 49.8497 37.5276C50.224 36.6569 50.4167 35.7236 50.4167 34.7811V18.2186C50.4167 17.2761 50.224 16.3428 49.8497 15.472C49.4754 14.6013 48.9268 13.8101 48.2352 13.1436C47.5436 12.4772 46.7226 11.9485 45.819 11.5878C44.9153 11.2271 43.9468 11.0415 42.9688 11.0415H12.0313ZM8.02084 18.2186C8.02084 16.0831 9.81522 14.354 12.0313 14.354H42.9688C45.1848 14.354 46.9792 16.0831 46.9792 18.2186V34.7811C46.9792 35.806 46.5567 36.789 45.8046 37.5138C45.0525 38.2385 44.0324 38.6457 42.9688 38.6457H12.0313C10.9676 38.6457 9.94757 38.2385 9.19547 37.5138C8.44337 36.789 8.02084 35.806 8.02084 34.7811V18.2186Z" fill="#4BC8A6"/>
</svg>
