<svg width="390" height="304" viewBox="0 0 390 304" fill="none" xmlns="http://www.w3.org/2000/svg">
<path d="M-10.1198 301.663L-10.0918 295.805L-10.0465 291.42L-9.92565 293.461L-9.76897 295.802L-9.64064 298.478L-9.54379 298.477L-9.40955 301.655L-9.1564 298.473L-8.96191 295.793L-8.73673 298.468L-8.63988 298.467L-8.25249 298.463L-7.8643 295.782L-7.34778 295.776L-7.1226 298.451L-7.05724 295.773L-6.96039 295.772L-6.50923 298.445L-6.44387 295.767L-6.02499 298.44L-5.60532 298.435L-5.12108 298.43L-4.70141 298.426L-4.21717 298.421L-3.7975 298.416L-3.41011 298.412L-2.89359 298.407L-2.50619 298.402L-1.98967 298.397L-1.85502 293.375L-1.78218 291.333L-1.67469 289.491L-1.45935 291.329L-1.38415 289.488L-1.2873 289.487L-0.770782 289.481L-0.499918 287.805L-0.40307 287.804L-0.272742 282.414L-0.189276 281.275L-0.0841541 279.232L0.00167322 278.294L0.389064 278.29L0.691423 276.546L0.76072 274.203L0.818997 270.922L0.87137 267.14L0.992226 269.18L1.1241 272.157L1.28235 277.377L1.35952 275.703L1.45441 272.79L1.52921 270.915L1.63314 271.516L1.73747 272.151L1.85006 273.488L1.93864 272.785L2.02801 272.148L2.12486 272.147L2.24651 271.509L2.53706 271.506L2.92445 271.502L3.17365 273.474L3.30631 276.519L3.47245 274.174L3.56104 273.47L3.67481 274.908L3.79055 276.514L3.89724 277.349L4.00669 275.675L4.09448 274.904L4.21022 276.509L4.32753 278.248L4.39408 275.67L4.50076 276.506L4.58777 275.668L4.67557 274.898L4.79604 274.16L4.88462 273.456L5.18343 274.156L5.26375 272.749L5.36886 273.451L5.69168 273.448L5.97396 272.742L6.06333 272.105L6.14562 270.866L6.23538 270.262L6.3716 270.863L6.46136 270.26L6.55821 270.259L6.75899 270.859L6.84875 270.256L6.9456 270.255L7.03575 269.685L7.25504 269.114L7.35189 269.113L7.53338 268.073L7.61842 267.068L7.69874 265.662L7.79559 265.66L8.044 267.566L8.15895 269.104L8.26249 269.672L8.33454 267.563L8.40384 265.219L8.48573 263.946L8.57786 263.544L8.68927 264.781L8.81367 264.378L8.91524 264.778L8.99753 263.539L9.0991 263.94L9.19122 263.537L9.27902 262.766L9.35501 260.992L9.3755 254.498L9.60974 255.199L9.68219 253.123L9.76408 251.85L9.85857 251.648L9.95778 251.848L10.0456 251.077L10.129 249.939L10.2582 249.937L10.3487 249.401L10.4318 248.228L10.7239 248.359L11.081 251.267L11.1731 250.865L11.2841 252.068L11.3833 252.268L11.4703 251.43L11.5629 251.061L11.6487 250.123L11.7432 249.921L11.8443 250.289L11.9758 250.488L12.0837 251.424L12.1652 250.118L12.2683 250.652L12.4644 250.851L12.5679 251.419L12.6723 252.054L12.7919 251.249L12.8931 251.616L12.9951 252.05L13.0825 251.246L13.3707 251.042L13.601 251.408L13.7053 252.043L13.8045 252.242L13.9191 253.747L14.0187 253.981L14.1128 253.745L14.2151 254.213L14.3037 253.509L14.4202 252.437L14.5049 251.398L14.7009 251.597L14.8076 252.433L14.9096 252.867L15.0116 253.301L15.2375 253.298L15.3368 253.498L15.4312 253.296L15.5304 253.496L15.6525 255.637L15.7552 256.138L15.8375 254.899L15.9261 254.195L16.0525 253.959L16.1548 254.427L16.3403 253.722L16.417 252.014L16.4954 250.44L16.5879 250.071L16.6741 249.166L16.7627 248.463L16.8844 247.825L16.9682 246.72L17.06 246.284L17.1603 246.584L17.2536 246.282L17.332 244.708L17.3915 241.528L17.473 240.222L17.6135 241.191L17.6989 240.219L17.7702 238.043L17.8525 236.804L17.8993 232.552L17.9474 228.402L18.0537 229.204L18.1442 228.667L18.2682 228.231L18.358 227.628L18.4564 227.76L18.5489 227.391L18.6383 226.754L18.7265 226.017L18.8218 225.882L18.8734 222.033L18.9777 219.923L19.0568 218.416L19.1025 214.065L19.1891 213.193L19.3175 215.87L19.3852 213.392L19.4887 213.96L19.5962 214.863L19.7308 215.33L19.8486 217.102L19.9556 217.971L20.0363 216.598L20.1139 214.958L20.2072 214.655L20.2836 212.914L20.3663 211.708L20.4604 211.473L20.595 211.94L20.6954 212.24L20.782 211.369L20.8753 211.067L20.9647 210.43L21.0422 208.789L21.0864 204.304L21.1368 200.354L21.2549 199.416L21.3387 198.31L21.4198 196.971L21.4525 191.515L21.5324 190.075L21.6667 193.253L21.8324 199.108L21.9462 200.546L22.0312 196.797L22.1371 197.565L22.2293 197.163L22.3348 197.898L22.4718 201.31L22.5619 200.74L22.6375 198.932L22.9603 198.929L23.3749 201.234L23.4536 199.693L23.5517 199.793L23.7827 200.226L23.8871 200.86L23.989 201.294L24.1969 202.497L24.3189 204.638L24.3863 202.127L24.5103 201.69L24.6185 202.66L24.802 201.788L24.9087 202.623L25.0087 202.89L25.2055 203.156L25.4362 203.555L25.5374 203.922L25.639 204.323L25.7205 203.016L25.8224 203.45L26.1138 203.514L26.3315 202.809L26.5287 203.108L26.6307 203.542L26.7291 203.675L26.8256 203.641L27.0571 204.107L27.1665 205.177L27.2984 208.154L27.3925 207.919L27.4956 208.453L27.6483 213.204L27.7479 213.437L27.844 213.37L27.9267 209.419L28.0176 208.916L28.1255 209.852L28.2255 210.119L28.3121 209.248L28.3928 207.875L28.4767 206.769L28.7105 207.436L28.807 207.402L28.8948 206.631L29.192 207.197L29.2889 207.196L29.3873 207.329L29.5022 208.867L29.6613 211.409L29.7589 211.475L29.8475 210.771L30.153 212.04L30.253 212.306L30.3443 211.837L30.577 212.403L30.688 213.607L30.8104 215.781L30.8982 215.011L31.0022 215.612L31.1494 219.895L31.2577 220.864L31.3486 217.617L31.5514 218.384L31.6569 219.119L31.7765 221.059L31.8801 221.627L32.0612 220.554L32.1844 220.051L32.251 217.473L32.3647 218.911L32.4663 219.312L32.5596 219.009L32.6631 219.577L32.7631 219.844L32.8749 221.115L33.0088 221.515L33.11 221.882L33.2923 220.909L33.3875 220.775L33.4871 221.008L33.7828 221.44L33.9194 222.074L34.0343 223.613L34.1438 224.682L34.2328 224.012L34.3339 224.379L34.4387 225.048L34.5292 224.511L34.7587 224.81L34.8611 225.277L34.9717 226.448L35.1185 230.697L35.2327 232.168L35.3583 234.61L35.5296 232.701L35.624 229.754L35.7162 229.352L35.8319 230.957L35.9339 231.391L36.1146 230.285L36.1984 229.179L36.2689 226.936L36.4075 227.738L36.5162 228.741L36.613 228.74L36.9075 229.071L37.0122 229.739L37.3295 229.268L37.4327 229.802L37.5386 230.571L37.6283 229.967L37.7189 229.431L37.82 229.798L37.9535 232.909L38.1003 234.414L38.1834 233.241L38.3003 234.947L38.4058 235.682L38.4995 235.414L38.5865 234.576L38.6877 234.943L38.7775 234.34L38.8735 234.272L38.994 233.534L39.0865 233.165L39.281 233.23L39.4491 231.052L39.5373 230.315L39.6243 229.478L39.7503 229.208L39.8586 230.178L39.9684 231.281L40.0566 230.544L40.1456 229.874L40.5613 229.535L40.6475 228.63L40.9432 229.062L41.0369 228.793L41.4416 227.517L41.5074 224.872L41.7105 225.673L41.8014 225.17L41.8971 225.069L41.9829 224.131L42.1172 224.565L42.3058 224.127L42.3987 223.792L42.4971 223.925L42.5747 222.284L42.6503 220.476L42.7428 220.107L42.8502 221.009L42.9672 219.97L43.0302 217.091L43.1081 215.484L43.2947 214.879L43.4089 216.351L43.5077 216.517L43.592 215.445L43.7231 215.611L43.8239 215.945L44.0089 215.207L44.2297 217.514L44.329 217.713L44.4187 217.11L44.5396 216.406L44.6412 216.806L44.9313 216.77L45.0423 217.974L45.1498 218.876L45.2577 219.812L45.3766 218.941L45.4766 219.207L45.7549 218.167L45.8443 217.53L45.9451 217.864L46.1793 218.564L46.2809 218.965L46.5643 218.359L46.6568 217.99L46.76 218.524L46.8604 218.825L46.9993 219.66L47.1222 221.867L47.2241 222.302L47.3395 223.873L47.4233 222.768L47.5292 223.537L47.6222 223.201L47.941 222.863L48.021 221.423L48.1115 220.886L48.2119 221.187L48.306 220.951L48.5028 221.217L48.7269 221.047L48.8335 221.883L48.9312 221.949L49.0225 221.479L49.1138 221.01L49.4068 221.207L49.5351 221.139L49.6359 221.473L49.7288 221.137L49.8264 221.203L49.9119 220.231L50.0012 219.595L50.1953 219.626L50.4256 219.992L50.5363 221.162L50.7331 221.428L50.8323 221.627L51.1665 222.594L51.2571 222.058L51.3528 221.957L51.4441 221.487L51.5437 221.72L51.6386 221.552L51.9228 221.013L52.0527 221.079L52.4445 221.443L52.5452 221.777L52.735 221.44L52.9586 221.237L53.1476 220.833L53.3437 221.032L53.531 220.494L53.7507 219.956L53.8456 219.788L54.0452 220.288L54.2389 220.286L54.5684 220.852L54.6661 220.917L54.9515 220.479L55.1432 220.31L55.5668 220.64L55.7633 220.872L56.0861 220.869L56.3723 220.498L56.4688 220.463L56.8562 220.459L57.3715 220.353L57.7896 220.215L57.8857 220.147L58.2699 219.875L58.3612 219.406L58.4561 219.237L58.6754 218.666L58.8746 219.132L59.0624 218.628L59.151 217.925L59.3683 217.186L59.4537 216.214L59.5553 216.615L59.6537 216.748L59.7451 216.278L59.8364 215.809L59.9309 215.607L60.0309 215.874L60.2632 216.407L60.4569 216.405L60.5494 216.035L60.836 215.698L60.934 215.797L61.0608 215.595L61.1616 215.929L61.26 216.061L61.3525 215.692L61.7332 215.119L61.8556 214.549L62.0438 214.078L62.1312 213.274L62.4107 212.334L62.5005 211.731L62.6139 210.391L62.8265 211.995L62.9072 210.622L63.0103 211.156L63.1107 211.457L63.204 211.154L63.4265 210.851L63.5206 210.615L63.717 210.848L63.8099 210.512L63.8997 209.909L64.0753 208.367L64.1922 207.328L64.2839 206.892L64.3879 207.494L64.4796 207.057L64.7619 206.352L65.0796 205.913L65.1741 205.711L65.265 205.208L65.3532 204.471L65.4402 203.633L65.5359 203.532L65.6563 205.539L65.8075 210.156L65.9276 209.385L66.0134 208.447L66.113 208.68L66.2079 208.512L66.2992 208.042L66.4874 207.572L66.5725 206.567L66.7067 207L66.9032 207.233L67.011 208.169L67.2984 207.898L67.3961 207.964L67.5169 207.26L67.6098 206.924L67.7035 206.655L67.8031 206.888L67.8988 206.787L68.313 206.314L68.5 205.743L68.6909 205.507L68.785 205.271L68.8755 204.735L69.1039 204.933L69.2015 204.999L69.5893 205.029L69.6846 204.894L70.0062 204.79L70.1964 204.487L70.485 204.316L70.6897 205.251L70.8322 206.388L70.9164 205.316L71.3054 205.446L71.8223 205.474L72.2132 205.771L72.5475 206.738L72.6585 207.942L72.7542 207.84L72.8475 207.538L73.1294 206.799L73.3636 207.499L73.4616 207.598L73.5573 207.497L73.7471 207.16L74.0364 207.057L74.2644 207.222L74.3569 206.853L74.4537 206.851L74.6455 206.682L74.7352 206.079L74.8285 205.776L74.9569 205.708L75.3384 205.202L75.4313 204.866L75.7525 204.729L75.8541 205.13L75.9478 204.861L76.2336 204.456L76.3308 204.489L76.5493 203.85L76.6419 203.481L77.1245 203.342L77.3474 203.072L77.5411 203.07L77.6387 203.136L77.934 203.535L78.4505 203.529L78.8363 203.391L79.3528 203.386L79.739 203.281L80.0575 202.91L80.154 202.875L80.2461 202.473L80.6634 202.267L80.8528 201.897L80.9406 201.126L81.0307 200.556L81.3122 199.784L81.4319 198.979L81.5276 198.878L81.6177 198.308L81.7276 199.411L81.8193 198.975L81.9106 198.506L81.9992 197.802L82.087 197.031L82.213 196.762L82.2984 195.79L82.5031 196.725L82.5921 196.055L82.687 195.887L82.7827 195.785L82.8744 195.349L82.9665 194.947L83.0878 194.276L83.1775 193.672L83.3638 193.035L83.4519 192.297L83.6429 192.061L83.7279 191.056L83.9582 191.422L84.0523 191.186L84.1382 190.248L84.2259 189.478L84.413 188.907L84.52 189.776L84.6437 189.306L84.7385 189.138L84.8291 188.601L84.9251 188.533L85.0118 187.662L85.0996 186.891L85.294 186.956L85.4157 186.319L85.4909 184.477L85.559 182.033L85.6767 183.806L85.7625 182.868L85.8492 181.997L85.9397 181.46L86.0334 181.192L86.1795 182.629L86.2649 181.658L86.3578 181.322L86.4562 181.455L86.5539 181.521L86.7385 180.749L86.8098 178.573L86.883 176.564L86.9901 174.688L87.0822 174.286L87.2035 176.36L87.2814 174.752L87.3625 173.413L87.4507 172.675L87.5283 171.034L87.6188 170.498L87.8358 169.726L88.0121 168.251L88.0936 166.945L88.1547 163.899L88.2464 163.463L88.3318 162.491L88.4578 162.222L88.5377 160.782L88.6007 157.903L88.6625 154.924L88.7928 157.767L88.955 163.321L89.1432 171.084L89.1889 166.733L89.3408 168.672L89.4605 170.612L89.6156 175.564L89.6589 171.012L89.729 168.735L89.7845 165.22L89.8735 164.55L89.9767 165.084L90.1011 164.681L90.1806 163.208L90.2519 161.032L90.3597 161.968L90.4727 163.339L90.7495 162.164L90.8814 162.397L91.0069 164.839L91.1294 167.013L91.2581 169.723L91.3231 167.011L91.4073 165.939L91.4979 165.403L91.6136 167.008L91.6986 166.003L91.8313 166.303L91.9171 165.365L92.116 165.798L92.2093 165.496L92.3097 165.796L92.4152 166.531L92.5033 165.794L92.6226 164.956L92.7159 164.654L92.8159 164.92L93.01 164.952L93.1053 164.817L93.286 163.711L93.5053 163.139L93.6084 163.674L93.899 163.671L94.2332 164.638L94.3352 165.072L94.4289 164.803L94.6246 164.968L94.7344 166.072L94.8375 166.606L94.956 168.446L95.0718 167.306L95.1643 166.937L95.2576 166.635L95.3615 167.236L95.4674 168.005L95.7576 167.969L95.8422 166.93L96.0623 166.426L96.1627 166.726L96.2654 167.227L96.4666 167.861L96.5587 167.458L96.6583 167.691L96.791 167.991L96.8993 168.961L97.0949 169.126L97.2032 170.095L97.3024 170.295L97.4119 171.365L97.5213 172.435L97.6697 174.073L97.7721 174.541L97.9461 172.865L98.0469 173.199L98.1264 171.726L98.2103 170.62L98.2874 168.946L98.4236 169.547L98.5158 169.144L98.6071 168.675L98.7067 168.908L98.9158 170.211L99.0098 169.976L99.2401 170.341L99.3354 170.207L99.4264 169.704L99.6146 169.233L99.7122 169.299L99.8976 168.594L100.117 168.023L100.205 167.286L100.308 167.786L100.504 167.985L100.6 167.917L100.694 167.715L100.922 167.88L101.123 168.481L101.311 167.977L101.404 167.674L101.501 167.64L101.586 166.668L101.721 167.136L101.911 166.832L102.004 166.53L102.094 165.927L102.283 165.557L102.379 165.489L102.511 165.688L102.704 165.619L102.8 165.518L102.882 164.278L102.98 164.378L103.16 163.238L103.282 162.601L103.377 162.466L103.475 162.599L103.577 163.033L103.683 163.768L103.793 164.905L103.885 164.435L103.986 164.836L104.105 163.998L104.294 163.527L104.385 163.091L104.586 163.725L104.873 163.354L105 163.185L105.099 163.385L105.395 163.817L105.492 163.816L105.59 163.982L105.685 163.78L105.906 163.376L106.001 163.174L106.091 162.638L106.193 163.038L106.289 162.97L106.503 164.675L106.619 163.569L106.815 163.768L107.01 163.867L107.099 163.263L107.197 163.329L107.418 162.925L107.602 162.086L107.692 161.483L107.969 160.342L108.049 158.935L108.177 158.767L108.258 157.427L108.342 156.355L108.424 155.116L108.534 156.253L108.648 157.657L108.825 156.216L108.916 155.747L109.331 155.374L109.425 155.139L109.611 154.434L109.692 153.094L109.802 151.453L109.873 149.277L109.953 147.837L110.016 144.991L110.133 146.697L110.305 144.821L110.398 144.519L110.506 142.71L110.693 142.106L110.771 140.532L110.824 136.816L110.859 131.528L111.028 137.684L111.089 134.638L111.195 132.629L111.257 129.683L111.374 131.388L111.463 130.751L111.642 129.478L111.716 127.569L111.791 125.661L111.91 124.856L112.021 126.06L112.132 127.197L112.315 126.291L112.435 128.264L112.523 127.494L112.701 134.42L112.799 131.808L112.872 129.766L112.96 128.962L113.055 128.827L113.165 129.997L113.253 129.193L113.357 129.828L113.467 130.931L113.569 131.398L113.734 134.442L113.903 140.566L113.959 137.051L114.027 134.607L114.143 136.279L114.233 135.642L114.332 135.875L114.423 135.305L114.633 133.998L114.717 132.892L114.818 133.226L114.919 133.593L115.011 133.157L115.2 132.787L115.332 133.02L115.411 131.546L115.594 130.607L115.663 128.23L115.772 129.267L115.886 130.705L115.987 131.038L116.115 130.936L116.195 129.563L116.302 130.399L116.409 131.301L116.6 131.032L116.691 130.529L116.794 131.063L116.929 131.53L117.023 131.295L117.111 130.591L117.407 131.023L117.507 131.256L117.611 131.925L117.7 131.187L117.822 130.584L117.937 132.189L118.023 131.251L118.219 131.416L118.311 131.014L118.406 130.845L118.505 131.012L118.829 131.175L118.936 131.978L119.048 133.315L119.159 134.452L119.253 134.217L119.353 134.483L119.584 134.95L119.695 136.153L119.777 134.847L119.985 136.083L120.175 135.813L120.424 137.685L120.517 137.383L120.604 136.579L120.815 138.049L120.918 138.55L120.997 137.043L121.127 137.142L121.235 138.011L121.326 137.575L121.488 134.896L121.583 134.728L121.682 134.86L121.918 135.728L122.019 136.062L122.109 135.525L122.21 135.825L122.305 135.657L122.401 135.656L122.596 135.754L122.691 135.586L122.822 135.719L123.021 136.152L123.223 136.886L123.322 137.085L123.425 137.62L123.743 137.181L123.95 138.317L124.063 139.655L124.161 139.788L124.269 140.757L124.372 141.258L124.595 140.954L124.706 142.225L124.799 141.856L124.985 141.185L125.084 141.384L125.183 141.551L125.428 143.222L125.614 142.517L125.715 142.917L125.798 141.712L125.877 140.171L125.962 139.166L126.095 139.533L126.201 140.235L126.295 140.033L126.387 139.63L126.485 139.696L126.888 141.031L127.119 141.463L127.223 142.065L127.316 141.762L127.506 141.392L127.604 141.559L127.705 141.892L127.837 142.125L128.033 142.324L128.127 142.055L128.221 141.786L128.642 141.916L128.739 141.915L128.834 141.78L129.122 141.542L129.438 140.97L129.523 139.999L129.613 139.395L129.702 138.725L129.802 138.958L129.884 137.719L129.973 137.082L130.301 137.48L130.387 136.576L130.477 136.006L130.565 135.268L130.754 134.798L130.857 135.332L130.983 135.063L131.272 134.926L131.565 135.191L131.669 135.759L131.774 136.494L131.91 137.061L132.011 137.429L132.098 136.557L132.194 136.489L132.287 136.187L132.487 136.654L132.583 136.653L132.71 136.417L132.809 136.65L133.01 137.251L133.103 136.915L133.511 135.873L133.598 135.069L133.696 135.135L133.892 135.367L133.991 135.567L134.087 135.499L134.186 135.665L134.413 135.73L134.799 135.659L135.318 135.787L135.705 135.816L135.903 136.149L136.133 136.515L136.527 137.046L136.626 137.246L136.716 136.676L137.04 136.773L137.524 136.734L137.854 137.3L137.956 137.801L138.066 138.871L138.169 139.372L138.268 139.571L138.364 139.47L138.505 140.506L138.693 140.002L138.777 138.93L138.877 139.163L139.298 139.326L139.789 139.923L139.891 140.324L140.212 140.12L140.603 140.45L140.794 140.247L141.022 140.412L141.118 140.311L141.411 140.576L141.513 140.976L141.619 141.745L141.733 143.183L141.86 142.981L141.961 143.381L142.058 143.347L142.239 142.307L142.342 142.842L142.443 143.175L142.676 143.775L142.78 144.377L142.876 144.275L143.172 144.774L143.282 145.877L143.397 147.449L143.615 146.711L143.707 146.308L143.789 145.102L144.168 144.362L144.285 143.323L144.385 143.623L144.486 143.957L144.68 143.988L144.775 143.82L144.876 144.12L145.068 144.051L145.206 144.786L145.309 145.287L145.411 145.688L145.507 145.62L145.602 145.485L145.8 145.817L145.902 146.251L146.029 146.116L146.133 146.717L146.516 146.312L146.609 146.043L146.927 145.638L147.016 144.968L147.194 143.627L147.273 142.087L147.387 143.491L147.489 143.959L147.71 143.521L147.814 144.189L148.016 144.89L148.122 145.592L148.215 145.323L148.431 144.484L148.524 144.115L148.626 144.582L148.723 144.615L149.106 144.209L149.432 144.474L149.53 144.539L149.928 145.472L150.027 145.639L150.155 145.537L150.351 145.702L150.447 145.668L150.649 146.335L150.753 147.003L150.857 147.571L150.986 147.57L151.075 146.933L151.267 146.73L151.36 146.461L151.459 146.628L151.562 147.129L151.788 147.16L151.984 147.358L152.275 147.389L152.477 148.056L152.627 149.828L152.726 149.995L152.908 148.989L153.104 149.187L153.204 149.454L153.306 149.888L153.438 150.154L153.558 152.161L153.694 155.473L153.783 154.803L153.875 154.367L153.982 155.236L154.074 154.833L154.165 154.33L154.47 152.788L154.568 152.92L154.658 152.35L154.714 151.58L154.785 149.437L154.897 150.708L155 151.242L155.147 152.747L155.45 153.781L155.539 153.144L155.627 152.374L155.734 153.209L155.833 153.443L155.965 153.642L156.056 153.172L156.255 153.572L156.633 152.765L156.75 151.759L156.954 152.594L157.142 152.157L157.24 152.256L157.333 151.921L157.661 152.386L158.037 151.411L158.132 151.209L158.318 150.605L158.437 149.733L158.531 149.498L158.634 149.999L158.73 149.898L158.922 149.728L159.014 149.326L159.102 148.622L159.327 148.552L159.427 148.752L159.529 149.22L159.717 148.749L159.815 148.815L159.923 149.785L160.065 150.888L160.159 150.585L160.257 150.685L160.444 150.181L160.55 150.949L160.656 151.718L160.749 151.416L160.973 151.246L161.075 151.68L161.173 151.713L161.269 151.645L161.367 151.777L161.46 151.475L161.553 151.106L161.972 151.035L162.073 151.402L162.174 151.769L162.276 152.203L162.471 152.301L162.603 152.568L162.711 153.504L162.807 153.436L162.899 153L162.998 153.199L163.416 153.028L163.505 152.391L163.701 152.589L163.801 152.823L163.907 153.625L164.094 153.054L164.223 153.052L164.316 152.65L164.409 152.381L164.599 152.044L164.696 152.043L164.796 152.31L165.025 152.609L165.116 152.039L165.597 151.833L165.827 152.165L166.021 152.197L166.411 152.36L166.633 152.023L166.828 152.121L166.926 152.221L167.315 152.384L167.414 152.55L167.647 153.15L167.839 153.048L168.226 153.01L168.352 152.708L168.642 152.638L168.833 152.435L169.02 151.864L169.142 151.227L169.438 151.725L169.534 151.624L169.63 151.556L169.825 151.688L170.052 151.719L170.146 151.484L170.334 151.047L170.424 150.443L170.621 150.742L170.847 150.706L171.03 149.834L171.322 149.898L171.411 149.228L171.5 148.591L171.62 147.853L171.724 148.455L171.823 148.621L172.023 149.121L172.124 149.455L172.22 149.454L172.542 149.316L172.64 149.483L172.83 149.146L172.923 148.777L173.018 148.642L173.241 148.372L173.34 148.571L173.538 148.904L173.637 149.104L173.926 149L174.353 149.565L174.458 150.3L174.554 150.199L174.876 150.162L175.172 150.56L175.27 150.66L175.368 150.792L175.484 152.398L175.582 152.497L175.709 152.328L175.809 152.595L176.011 153.296L176.115 153.931L176.201 153.026L176.393 152.857L176.714 152.719L177.101 152.615L177.286 151.944L177.509 151.673L178.001 152.338L178.102 152.671L178.422 152.434L178.518 152.332L178.616 152.398L178.909 152.663L179.132 152.393L179.324 152.223L179.709 152.052L180.031 151.948L180.224 151.912L180.412 151.442L180.51 151.508L180.607 151.507L180.735 151.438L181.117 150.966L181.304 150.428L181.395 149.858L181.526 150.024L181.624 150.191L181.718 149.922L181.909 149.652L182.096 149.115L182.187 148.612L182.32 148.911L182.411 148.408L182.502 147.939L182.593 147.436L182.68 146.598L182.778 146.698L182.964 146.06L183.066 143.749L183.132 141.071L183.251 142.977L183.363 144.248L183.453 143.678L183.651 144.078L183.753 144.512L183.912 147.054L184.002 146.45L184.095 146.115L184.292 146.38L184.393 146.747L184.482 146.044L184.579 146.076L184.709 146.209L184.813 146.81L184.907 146.541L185.004 146.574L185.102 146.64L185.381 145.632L185.47 145.029L185.693 144.692L185.781 144.022L185.883 144.389L185.986 144.957L186.079 144.588L186.266 144.05L186.385 143.212L186.664 142.172L186.762 142.271L186.85 141.567L187.169 141.229L187.259 140.626L187.643 140.354L187.849 141.356L188.073 141.219L188.164 140.683L188.369 141.651L188.471 142.119L188.565 141.85L188.981 141.511L189.368 141.54L189.555 140.903L189.681 140.667L189.779 140.8L189.879 141L190.177 141.632L190.273 141.564L190.384 142.802L190.529 144.172L190.619 143.569L190.716 143.601L190.905 143.164L190.991 142.26L191.098 143.129L191.198 143.362L191.614 143.023L191.716 143.524L191.818 143.924L191.913 143.789L192.142 144.021L192.43 143.784L192.522 143.381L192.625 143.882L192.949 144.046L193.043 143.744L193.328 143.306L193.42 142.87L193.703 142.231L193.829 141.995L194.018 141.592L194.309 141.622L194.727 141.45L195.114 141.446L195.216 141.88L195.451 142.647L195.642 142.378L196.024 141.939L196.123 142.138L196.542 142.067L196.637 141.899L196.737 142.132L196.932 142.264L197.252 141.992L197.348 141.991L197.864 141.919L197.964 142.152L198.251 141.882L198.767 141.843L198.963 142.008L199.059 141.906L199.155 141.838L199.572 141.6L199.667 141.465L199.862 141.563L199.957 141.462L200.052 141.227L200.145 140.958L200.463 140.553L200.652 140.149L200.751 140.315L200.855 140.883L200.949 140.648L201.045 140.58L201.274 140.812L201.37 140.811L201.659 140.607L201.753 140.372L202.272 140.567L202.657 140.362L203.083 140.96L203.179 140.859L203.564 140.654L203.692 140.552L203.781 139.882L203.867 138.944L203.953 138.039L204.046 137.737L204.457 136.929L204.548 136.46L204.835 136.155L205.254 136.084L205.333 134.577L205.415 133.304L205.69 132.03L206.009 131.625L206.107 131.724L206.223 133.396L206.329 134.198L206.445 135.837L206.522 134.096L206.614 133.66L206.72 134.462L206.944 134.326L207.045 134.626L207.136 134.123L207.225 133.519L207.319 133.217L207.419 133.551L207.518 133.65L207.849 134.417L207.945 134.315L208.329 134.043L208.425 133.908L208.555 134.041L208.651 133.906L208.842 133.703L209.231 133.866L209.362 133.965L209.653 134.063L210.17 134.057L210.273 134.592L210.375 135.026L210.481 135.828L210.593 137.099L210.681 136.361L210.998 135.822L211.094 135.788L211.483 135.884L211.68 136.183L211.908 136.382L212.389 136.109L212.485 136.041L212.713 136.139L212.811 136.305L213.296 136.3L213.715 136.229L213.803 135.525L214.09 135.221L214.184 134.952L214.608 135.349L214.995 135.312L215.516 135.641L215.709 135.572L215.902 135.503L216.32 135.364L216.835 135.259L217.124 135.088L217.219 134.987L217.506 134.649L217.73 134.513L218.116 134.408L218.538 134.605L218.725 134L219.012 133.729L219.104 133.26L219.323 132.655L219.42 132.688L219.609 132.284L219.905 132.783L220.323 132.578L220.415 132.175L220.709 132.507L221.125 132.134L221.216 131.698L221.606 131.861L222.121 131.755L222.541 131.784L222.727 131.113L222.921 131.178L223.436 131.038L223.631 131.103L223.726 130.935L223.821 130.834L224.336 130.661L224.432 130.593L224.619 130.055L224.707 129.251L224.793 128.38L225.025 128.813L225.116 128.343L225.298 127.337L225.391 127.068L225.491 127.335L225.588 127.301L225.68 126.931L225.802 126.261L225.896 126.059L225.982 125.121L226.084 125.555L226.205 127.595L226.317 128.866L226.404 128.028L226.505 128.395L226.632 128.227L226.742 129.363L226.855 130.701L226.946 130.198L227.038 129.795L227.316 128.755L227.727 128.014L227.823 127.913L227.92 127.945L228.119 128.378L228.246 128.21L228.723 127.569L228.813 126.965L229.029 126.16L229.125 126.058L229.41 125.62L229.505 125.485L229.608 125.986L229.717 126.989L229.808 126.52L230.036 126.651L230.131 126.516L230.414 125.844L230.507 125.575L230.823 124.969L230.916 124.667L231.009 124.264L231.099 123.728L231.199 123.961L231.296 124.027L231.39 123.758L231.612 123.421L231.704 122.985L231.795 122.516L231.991 122.681L232.085 122.446L232.186 122.779L232.324 123.548L232.516 123.412L232.618 123.846L232.802 123.04L232.897 122.839L233.124 122.937L233.236 124.207L233.35 125.712L233.453 126.18L233.544 125.744L233.633 125.006L233.734 125.407L233.835 125.741L233.941 126.543L234.083 127.646L234.172 126.942L234.263 126.472L234.352 125.769L234.45 125.901L234.734 125.329L234.862 125.194L234.949 124.357L235.043 124.121L235.142 124.321L235.233 123.785L235.325 123.415L235.519 123.413L235.741 123.076L236.036 123.475L236.132 123.44L236.325 123.371L236.643 122.899L237.027 122.594L237.12 122.325L237.246 122.056L237.53 121.451L237.717 120.88L237.804 120.109L237.897 119.74L237.984 118.902L238.305 118.765L238.395 118.128L238.479 117.09L238.66 115.95L238.762 116.417L238.898 116.985L238.986 116.281L239.186 116.814L239.275 116.077L239.368 115.775L239.456 115.004L239.547 114.501L239.671 114.065L239.758 113.294L239.848 112.691L239.93 111.385L240.011 110.078L240.121 111.215L240.246 113.557L240.334 112.853L240.458 112.416L240.551 112.047L240.65 112.281L240.735 111.242L240.918 110.303L241.106 109.799L241.217 108.292L241.315 108.358L241.416 108.725L241.508 108.322L241.603 108.154L241.8 108.486L241.903 108.987L242.036 109.287L242.156 111.294L242.246 110.691L242.335 110.02L242.53 110.085L242.619 109.415L242.711 109.079L242.81 109.245L242.937 109.043L243.037 109.343L243.142 109.978L243.248 110.747L243.349 111.147L243.435 110.209L243.53 110.041L243.764 110.708L243.952 110.271L244.043 109.768L244.337 110.066L244.437 110.299L244.668 110.732L244.774 111.534L244.871 111.533L245.07 111.999L245.187 113.638L245.298 114.875L245.415 113.837L245.491 112.028L245.584 111.76L245.667 110.52L245.745 108.98L245.837 108.577L246.033 108.709L246.172 109.545L246.278 110.347L246.369 109.877L246.453 108.772L246.65 109.004L246.74 108.501L246.939 108.9L247.065 108.665L247.157 108.195L247.233 106.421L247.324 105.951L247.416 105.515L247.505 104.912L247.606 105.245L247.7 104.976L247.822 104.406L247.904 103.133L247.988 102.028L248.077 101.391L248.36 100.685L248.463 101.186L248.599 101.787L248.795 102.02L248.897 102.454L248.983 101.482L249.166 100.61L249.265 100.81L249.581 100.237L249.673 99.7678L249.765 99.3987L249.856 98.8622L249.959 99.3966L250.059 99.6968L250.198 100.465L250.299 100.832L250.384 99.8272L250.479 99.6923L250.581 100.093L250.686 100.795L250.787 101.195L251.01 100.959L251.124 102.397L251.238 103.801L251.346 104.804L251.425 103.297L251.607 102.291L251.939 103.057L252.045 103.826L252.137 103.39L252.325 102.919L252.417 102.483L252.508 101.98L252.597 101.31L252.818 100.939L253.006 100.435L253.107 100.802L253.207 101.036L253.616 100.094L253.705 99.4908L253.795 98.854L253.976 97.8145L254.054 96.1736L254.149 96.0388L254.28 96.1713L254.375 96.0364L254.473 96.1692L254.578 96.8709L254.666 96.1002L254.758 95.6976L254.845 94.8265L254.947 95.294L255.182 96.0278L255.283 96.3949L255.37 95.5573L255.566 95.756L255.659 95.3868L255.747 94.683L255.84 94.3139L255.96 93.5763L256.043 92.404L256.132 91.7336L256.228 91.6657L256.32 91.1962L256.423 91.6971L256.613 91.3939L256.746 91.7272L256.851 92.4624L256.961 93.5322L257.072 94.7694L257.161 94.0656L257.25 93.3953L257.333 92.223L257.418 91.218L257.537 90.3465L257.82 89.7411L257.915 89.6062L258.328 88.9659L258.411 87.827L258.496 86.7886L258.587 86.3191L258.672 85.3141L258.779 86.1831L258.871 85.7136L258.953 84.4744L259.076 83.9375L259.171 83.8361L259.262 83.3331L259.343 81.9265L259.405 78.9806L259.493 78.2098L259.598 78.9116L259.704 79.7472L259.806 77.4032L259.897 76.9337L260.001 77.5016L260.097 77.4002L260.18 76.2278L260.271 75.7583L260.355 74.6529L260.458 75.1539L260.56 75.6548L260.706 77.059L260.942 80.6378L261.021 79.1308L261.138 80.8365L261.227 80.1996L261.306 78.6592L261.397 78.1897L261.546 79.895L261.638 79.459L261.754 81.0977L261.853 81.2306L261.945 80.828L262.037 80.4588L262.116 78.9184L262.215 79.0512L262.33 77.8786L262.418 77.1413L262.629 78.5783L262.732 79.1461L262.838 79.9148L262.943 80.6166L263.16 79.8445L263.267 80.6801L263.361 80.4113L263.487 82.9202L263.606 84.7933L263.688 83.554L263.786 83.6199L263.865 82.0795L264.004 82.9482L264.111 83.7838L264.219 84.7868L264.311 84.3172L264.403 83.9146L264.505 84.3486L264.686 83.3092L264.79 83.944L264.927 84.545L265.04 85.9495L265.148 86.852L265.264 88.4908L265.455 88.288L265.577 90.4622L265.702 92.8372L265.794 89.6901L265.888 89.4214L265.983 89.2865L266.07 88.4153L266.177 89.2844L266.263 88.3798L266.362 88.5127L266.452 87.9762L266.563 86.4354L266.653 85.832L266.737 84.7266L266.927 84.3899L267.012 83.4519L267.119 84.2875L267.23 85.4912L267.464 86.1581L267.565 86.5252L267.66 86.3903L267.739 84.8164L268.023 84.2779L268.146 83.7411L268.337 83.5048L268.443 84.3069L268.547 84.9417L268.66 86.2459L268.778 88.052L268.864 87.1139L268.965 87.5145L269.085 86.7099L269.19 87.4452L269.296 88.2138L269.407 89.4176L269.503 89.3161L269.602 89.5159L269.712 90.5858L269.791 89.0788L269.915 88.6424L270.002 87.8047L270.104 88.3057L270.206 88.7397L270.294 87.969L270.399 88.6373L270.505 89.4059L270.608 89.9069L270.845 90.8415L270.96 92.4134L271.155 92.5452L271.247 92.1091L271.334 91.238L271.439 91.9397L271.576 92.6746L271.678 93.1086L271.768 92.4718L271.861 92.1696L271.964 92.704L272.156 92.5346L272.232 90.7264L272.349 89.7546L272.447 89.854L272.537 89.284L272.639 89.718L273.016 88.8104L273.138 88.1732L273.417 87.2331L273.621 88.0342L273.709 87.2969L273.9 87.1275L274.134 87.761L274.322 87.2569L274.41 86.5531L274.605 86.6515L274.707 87.0855L275.143 88.4532L275.244 88.8537L275.339 88.6184L275.529 88.3487L275.667 89.117L275.866 89.55L276.054 89.0794L276.148 88.7772L276.25 89.2447L276.356 90.0468L276.493 90.7148L276.593 90.9815L276.791 91.3141L276.89 91.5139L276.982 91.1112L277.077 90.9429L277.491 90.4365L277.592 90.7701L277.878 90.4324L277.977 90.5652L278.213 91.4664L278.324 92.6366L278.419 92.4683L278.527 93.4378L278.718 93.168L278.817 93.3678L279.133 92.762L279.231 92.9283L279.326 92.7599L279.435 93.7628L279.539 94.3977L279.642 94.8986L279.731 94.2617L280.16 95.027L280.241 93.6874L280.525 93.0819L280.656 93.2813L280.749 92.9457L281.034 92.5075L281.241 93.6098L281.338 93.6423L281.474 94.1764L281.569 94.008L281.847 93.001L281.942 92.7657L282.02 91.2252L282.343 91.2218L282.527 90.4166L282.612 89.3447L282.804 89.2422L282.908 89.8436L282.999 89.3406L283.226 89.4051L283.327 89.7722L283.434 90.6413L283.632 91.0408L283.837 91.9758L284.176 93.311L284.277 93.6781L284.371 93.4428L284.478 94.2784L284.569 93.7754L284.804 94.5427L284.89 93.6716L285.08 93.3349L285.469 93.4647L285.591 92.8609L285.695 93.4623L285.88 92.724L286.073 92.6885L286.161 91.9512L286.39 92.1831L286.672 91.4103L286.768 91.3758L286.863 91.174L286.968 91.9092L287.083 93.4141L287.308 93.3448L287.507 93.7778L287.701 93.8092L287.793 93.3731L288.115 93.3028L288.315 93.8362L288.504 93.4995L288.593 92.7622L289.02 93.4605L289.304 92.8551L289.5 93.0204L289.826 93.3181L289.92 93.0494L290.305 92.9114L290.639 93.845L290.833 93.8764L291.016 92.9708L291.212 93.1361L291.731 93.298L292.118 93.3273L292.542 93.691L293.059 93.6521L293.153 93.4168L293.442 93.2798L293.735 93.511L293.864 93.5097L293.962 93.609L294.182 95.8157L294.378 96.0144L294.58 96.7486L294.739 99.2572L294.84 99.6243L295.043 100.425L295.262 102.532L295.35 101.828L295.459 102.831L295.572 101.457L295.659 100.62L295.766 101.489L295.856 100.952L296.058 101.653L296.259 102.22L296.362 102.721L296.51 104.393L296.699 103.956L296.897 104.322L296.991 104.086L297.091 104.387L297.196 105.021L297.514 104.616L297.6 103.745L297.684 102.64L297.766 101.334L297.969 102.101L298.091 101.531L298.18 100.827L298.296 102.466L298.491 102.564L298.594 103.132L298.677 101.96L298.91 102.526L299.01 102.76L299.101 102.324L299.296 102.389L299.39 102.187L299.575 101.448L299.801 101.446L299.909 102.415L300.014 103.05L300.209 103.182L300.31 103.516L300.402 103.08L300.5 103.213L300.726 103.177L300.92 103.208L301.117 103.541L301.535 103.402L301.737 104.103L301.931 104.068L302.028 104.1L302.124 104.066L302.448 104.129L302.92 103.12L303.147 103.184L303.342 103.283L303.729 103.245L303.851 102.675L303.938 101.837L304.034 101.736L304.227 101.667L304.412 100.929L304.525 102.266L304.653 102.231L305.04 102.194L305.239 102.627L305.426 102.022L305.554 101.954L305.746 101.785L305.843 101.817L305.942 101.95L306.36 101.812L306.451 101.376L306.742 101.339L306.838 101.338L307.033 101.436L307.26 101.467L307.548 101.264L307.74 101.161L308.131 98.6468L308.215 97.6083L308.597 97.1357L308.723 96.8332L309.019 97.3655L309.213 97.33L309.403 97.0602L309.627 96.8236L309.914 96.5193L310.195 95.7131L310.295 96.0132L310.529 96.6802L310.82 96.744L311.009 96.3404L311.221 95.1332L311.316 94.9983L311.514 95.2975L311.602 94.6271L311.701 94.7265L311.791 94.19L311.88 93.5532L311.995 92.2801L312.081 91.3755L312.173 91.0064L312.252 89.4325L312.446 89.4974L312.562 91.0692L312.769 89.5274L312.963 89.5588L313.164 90.1257L313.252 89.4219L313.348 89.3205L313.524 87.8459L313.752 88.0109L313.848 87.9429L313.953 88.6112L314.046 88.2421L314.139 87.9398L314.239 88.24L314.351 89.4772L314.484 89.8105L314.673 89.4403L315.157 89.3683L315.283 89.0992L315.375 88.73L315.463 87.9593L315.551 87.1886L315.644 86.8529L315.933 86.7494L316.051 85.811L316.13 84.2706L316.409 83.297L316.483 81.3884L316.594 82.5587L316.819 82.4225L316.921 82.8899L317.03 83.9263L317.139 84.9293L317.217 83.3219L317.305 82.6181L317.413 83.5207L317.506 83.2184L317.724 82.5133L317.809 81.5083L317.9 81.0722L318.018 82.8449L318.115 82.8104L318.215 83.144L318.324 84.1804L318.429 84.8487L318.552 84.3119L318.671 86.2184L318.762 85.7154L318.846 84.6434L319.038 84.4406L319.242 85.3087L319.378 85.9431L319.468 85.3063L319.57 85.8072L319.673 86.3082L319.963 86.2382L320.055 85.8021L320.179 85.3991L320.267 84.6284L320.357 84.0919L320.534 82.6509L320.823 82.5139L321.055 83.047L321.251 83.1788L321.46 84.5154L321.566 85.3175L321.658 84.848L321.787 84.8466L321.973 84.2422L322.177 85.1102L322.276 85.2765L322.371 85.0747L322.47 85.241L322.566 85.24L322.691 84.837L322.998 86.273L323.094 86.1715L323.19 86.1036L323.496 84.6946L323.781 84.223L323.884 84.6905L323.98 84.6226L324.079 84.8223L324.31 85.255L324.404 85.0197L324.789 84.8148L325.121 85.5476L325.212 85.0781L325.311 85.2779L325.609 85.8772L325.734 88.3191L325.97 89.1199L326.26 89.0833L326.35 88.4799L326.645 88.845L327.063 88.7736L327.249 88.0688L327.35 88.4359L327.545 88.5008L327.875 89.1666L327.971 89.0652L328.071 89.3319L328.354 88.7265L328.484 88.7586L328.587 89.2595L328.696 90.3629L328.789 90.0272L328.848 86.78L328.941 86.4778L329.268 86.7756L329.751 86.7035L330.175 87.0672L330.277 87.5012L330.665 87.564L330.895 87.8963L331.09 87.9612L331.293 88.7623L331.493 89.2957L331.606 90.6667L331.835 90.8986L331.937 91.3326L332.03 91.0639L332.214 90.1917L332.403 89.8216L332.51 90.6572L332.835 90.888L332.929 90.6527L333.118 90.1822L333.313 90.3474L333.446 90.6807L333.546 90.8805L333.739 90.8784L334.136 91.711L334.272 92.2785L334.355 91.0727L334.645 91.0027L334.732 90.1651L334.835 90.6995L335.063 90.8644L335.16 90.8969L335.255 90.6951L335.547 90.8258L335.645 90.9587L335.868 90.722L335.964 90.6206L336.057 90.3184L336.24 89.3793L336.326 88.4747L336.433 89.3103L336.622 88.9402L336.847 88.8708L336.934 87.9997L337.026 87.5636L337.125 87.7299L337.217 87.3273L337.313 87.2928L337.545 87.759L337.738 87.7569L337.841 88.2244L338.131 88.1878L338.221 87.6514L338.343 87.0142L338.433 86.4442L338.627 86.4422L338.723 86.3742L338.917 86.4391L339.017 86.7058L339.141 86.2694L339.234 85.9002L339.515 85.1275L339.617 85.528L339.801 84.6893L339.932 84.8553L340.228 85.3542L340.33 85.7882L340.515 85.0165L340.623 85.9525L340.718 85.8176L340.848 85.8497L340.94 85.4805L341.039 85.6468L341.14 86.0139L341.246 86.7491L341.351 87.4509L341.451 87.7176L341.547 87.6831L341.679 87.8825L341.772 87.5468L342.054 86.8745L342.151 86.84L342.353 87.5742L342.504 89.3799L342.599 89.245L342.845 93.6604L342.969 96.0354L343.165 96.2007L343.274 97.2706L343.394 96.466L343.57 94.9246L343.648 93.3507L343.748 93.5839L344.024 92.3426L344.456 93.4091L344.555 93.6423L344.647 93.2062L344.74 92.8371L344.841 93.1707L344.927 92.2661L345.052 91.9301L345.333 91.1239L345.424 90.6208L345.726 91.5883L345.857 91.7542L346.055 92.0868L346.147 91.7177L346.246 91.9175L346.337 91.3475L346.431 91.1457L346.653 90.8421L346.857 91.6432L346.951 91.4079L347.042 90.9719L347.129 90.0673L347.447 89.6623L347.542 89.5609L347.63 88.7901L347.709 87.2497L347.902 87.1807L347.996 86.9789L348.099 87.4464L348.224 87.1438L348.314 86.5404L348.409 86.4055L348.493 85.3002L348.594 85.6338L348.713 87.5403L348.811 87.5727L349.031 87.0684L349.112 85.7956L349.212 85.9954L349.498 85.6577L349.691 85.5887L349.797 86.3239L350.123 86.6551L350.229 87.3569L350.415 86.7525L350.507 86.3499L350.602 86.148L351.007 84.9388L351.115 85.8748L351.21 85.673L351.405 85.7714L351.918 85.4647L352.022 86.0995L352.347 86.2634L352.44 85.9947L352.734 86.2928L353.023 86.0889L353.148 85.7864L353.249 86.1535L353.349 86.4202L353.644 86.7852L353.836 86.6493L354.16 86.7463L354.449 86.5424L354.544 86.4075L354.735 86.2047L354.868 86.5045L354.964 86.47L355.451 86.6657L355.676 86.5964L355.87 86.5943L356.152 85.9219L356.345 85.8195L356.468 85.2827L356.557 84.6123L356.64 83.4735L356.735 83.2717L357.015 82.4319L357.12 83.0668L357.249 83.0989L357.345 82.9974L357.53 82.2591L357.626 82.2247L357.915 82.0208L358.046 82.2537L358.432 82.0488L358.529 82.0812L358.716 81.5103L358.82 82.1451L358.949 82.1437L359.046 82.1761L359.337 82.2065L359.537 82.7399L359.858 82.5692L360.142 81.9972L360.247 82.6655L360.459 84.2363L360.591 84.4692L360.787 84.7014L361.172 84.463L361.268 84.3616L361.583 83.6889L361.87 83.4516L362.064 83.416L362.199 83.9167L362.489 83.9136L362.871 83.441L362.968 83.4399L363.101 83.7398L363.298 84.0724L363.395 84.0713L363.781 83.9334L363.905 83.497L363.999 83.2617L364.09 82.7587L364.283 82.6897L364.704 82.7856L364.991 82.5148L365.082 82.0453L365.171 81.308L365.258 80.5038L365.579 80.3666L365.675 80.2986L365.963 80.0278L366.057 79.7925L366.149 79.4234L366.379 79.6887L366.475 79.6542L366.568 79.2851L366.651 78.1797L366.738 77.2751L366.835 77.341L366.936 77.6746L367.03 77.4393L367.346 76.867L367.438 76.4644L367.539 76.798L367.728 76.3944L367.817 75.7241L367.936 74.8861L368.125 74.449L368.217 74.0798L368.317 74.2796L368.505 73.809L368.601 73.7745L368.751 75.5134L369.031 74.6067L369.122 74.1037L369.211 73.4334L369.312 73.767L369.404 73.4313L369.537 73.6977L369.729 73.5952L369.926 73.8274L370.029 74.3953L370.226 74.6945L370.351 74.2915L370.439 73.5877L370.724 73.0492L370.792 70.6052L370.887 70.4703L371.108 69.9994L371.208 70.2996L371.398 69.9628L371.497 70.1961L371.587 69.5927L371.677 69.0227L371.758 67.6496L372.073 66.9434L372.163 66.3735L372.35 65.836L372.424 63.8605L372.532 64.7965L372.626 64.5612L372.737 63.0874L372.817 61.5804L372.904 60.8097L372.997 60.474L373.098 60.8076L373.225 63.35L373.319 63.1147L373.525 61.4056L373.625 61.6723L373.727 62.1398L373.83 62.6742L374.018 62.1367L374.125 63.0058L374.237 64.3099L374.652 63.8704L374.757 64.6056L374.859 65.0062L375.031 63.197L375.163 63.4633L375.45 63.1256L375.537 62.288L375.629 61.8519L375.81 60.7789L375.913 61.3134L376.038 60.9773L376.101 58.0648L376.387 57.6602L376.576 57.2565L376.8 57.1537L376.889 56.4165L376.982 56.1477L377.16 54.7736L377.253 54.4379L377.359 55.2066L377.481 57.4143L377.603 56.8105L377.699 56.6756L377.811 58.0132L378.013 58.647L378.096 57.5082L378.19 57.2394L378.278 56.5022L378.413 57.0028L378.518 57.7045L378.611 57.3354L378.7 56.665L378.879 55.4248L378.97 54.9552L379.064 54.7199L379.278 53.7136L379.373 53.5118L379.482 54.5816L379.583 54.9153L379.679 54.8138L379.766 54.0431L379.863 54.0086L379.991 53.9069L380.093 54.3744L380.296 55.142L380.391 54.9737L380.499 55.9431L380.592 55.574L380.683 55.071L380.775 54.7353L380.899 54.2989L380.992 53.8963L381.184 53.8273L381.478 54.0585L381.573 53.957L381.703 53.9557L381.806 54.5236L381.901 54.3887L382.084 53.4831L382.183 53.6159L382.367 52.7772L382.494 52.5751L382.592 52.7079L382.791 53.1409L382.907 54.8131L383.001 54.5778L383.102 54.878L383.333 55.3107L383.447 56.7821L383.724 55.6078L383.815 55.1382L383.912 55.1372L384.012 55.4039L384.138 55.1683L384.224 54.1967L384.324 54.4969L384.417 54.1612L384.522 54.8295L384.619 54.8619L384.711 54.4593L384.808 54.4918L384.899 53.9553L385.03 54.1213L385.232 54.7885L385.449 56.7609L385.646 57.0935L385.892 58.7979L386.11 60.8707L386.204 60.6019L386.41 61.6038L386.523 63.0084L386.605 61.7691L386.73 61.4331L386.821 60.8966L386.92 61.0964L387.028 62.0659L387.134 62.8345L387.228 62.5658L387.319 62.0628L387.541 61.7592L387.631 61.1223L387.737 61.9245L387.936 62.391L388.032 62.323L388.148 63.9618L388.233 62.9233L388.351 61.9849L388.447 61.8835L388.552 62.5518L388.724 60.7426L388.818 60.4739L388.92 60.9079L389.019 61.1076L389.123 61.709L389.261 62.4773L389.36 62.6771L389.473 64.0147L389.572 64.181L389.66 63.4437L389.757 63.4427L389.857 63.7094L389.965 64.6789L390.085 63.8743L390.173 63.1371L390.262 62.5002L390.365 62.9677L390.469 63.6025L390.567 63.7353L390.657 63.0985L390.748 62.6624L390.885 63.2969L391.076 63.0606L391.183 63.9631L391.372 63.4925L391.566 63.5574L391.7 63.9576L391.798 64.0905L391.997 64.5235L392.095 64.6228L392.398 65.6907L392.516 64.7188L392.608 64.3162L392.792 63.444L392.885 63.1753L392.959 61.2333L393.06 61.5334L393.146 60.5954L393.275 60.594L393.459 59.8223L393.663 60.6568L393.766 61.2247L393.955 60.7876L394.044 60.1173L394.16 59.045L394.253 58.7093L394.345 58.2398L394.536 58.0035L394.638 58.5045L394.729 57.9345L394.822 57.6658L394.955 57.9321L395.047 57.5964L395.15 58.0639L395.251 58.3976L395.435 57.5923L395.524 56.9555L395.746 56.6184L395.947 57.2188L396.049 57.6528L396.235 56.9814L396.333 57.0808L396.564 57.5469L396.748 56.7082L397.127 56.0013L397.227 56.2346L397.376 57.9065L397.671 58.2715L397.765 58.0697L397.867 58.5037L397.958 58.0007L398.048 57.4308L398.143 57.2959L398.275 57.4619L398.368 57.1596L398.467 57.3929L398.58 58.7639L398.684 59.3318L398.871 58.7609L398.973 59.2284L399.198 59.1256L399.398 59.659L399.494 59.591L399.585 59.0545L399.664 57.581L399.887 57.2774L400.072 56.5726L400.16 55.7684" stroke="#16A79E" stroke-width="3" stroke-linejoin="round"/>
<path opacity="0.3" d="M0.5 15C0.5 6.99186 6.99187 0.5 15 0.5H375C383.008 0.5 389.5 6.99187 389.5 15V301.5H0.5V15Z" fill="#404C57" stroke="black"/>
</svg>
