<svg width="32" height="32" viewBox="0 0 32 32" fill="none" xmlns="http://www.w3.org/2000/svg">
<circle cx="16.3136" cy="15.5781" r="15.5781" fill="#33404C"/>
<path d="M15.7027 25.1999V22.8345H14.92V25.1999H13.3545V22.8345H9.46518L9.85654 20.5036H10.7011C11.393 20.5036 11.7891 19.8375 11.7891 19.1675V12.2098C11.7891 11.5578 11.4095 11.1109 10.7207 11.1109H9.44092V8.76272H13.3545V6.41455H14.92V8.76272H15.7027V6.41455H17.2682V8.80421C20.6456 8.91849 21.9833 10.1982 22.3668 11.6416C22.8208 13.3479 21.696 14.7803 20.7286 15.1294C21.9035 15.4284 23.53 16.2965 23.53 18.2994C23.53 21.0257 21.426 22.8518 17.2682 22.8518V25.1999H15.7027ZM14.92 16.5853V20.5036C18.0266 20.5036 20.1549 20.2101 20.1549 18.5343C20.1549 16.7371 17.8552 16.5853 14.92 16.5853ZM14.92 15.0245C16.6506 15.0245 19.286 14.9024 19.286 13.0677C19.286 11.5023 17.6595 11.1109 14.92 11.1109V15.0245Z" fill="#FFA800"/>
</svg>
