<svg width="32" height="32" viewBox="0 0 32 32" fill="none" xmlns="http://www.w3.org/2000/svg">
<circle cx="15.5781" cy="15.5781" r="15.5781" fill="#33404C"/>
<g clip-path="url(#clip0_428_74)">
<path d="M11.8411 14.0426L15.5788 10.3053L19.3176 14.0441L21.4924 11.8697L15.5788 5.95605L9.66666 11.8678L11.8411 14.0422V14.0426ZM5.95642 15.5784L8.13122 13.4032L10.3056 15.5784L8.13085 17.7521L5.95642 15.5784ZM11.8411 17.1138L15.5788 20.8508L19.3176 17.112L21.4935 19.2853L15.5788 25.2008L9.66666 19.2883L9.66366 19.2849L11.8411 17.1135V17.1138ZM20.8511 15.5784L23.0256 13.404L25.2011 15.5784L23.0267 17.7528L20.8511 15.5784Z" fill="#F3BA2F"/>
<path d="M17.7836 15.5784L15.5787 13.3701L13.9474 15.0007L13.7595 15.1886L13.3735 15.5746L13.3705 15.5776L13.3735 15.5806L15.5787 17.7855L17.7851 15.5791H17.7832" fill="#F3BA2F"/>
</g>
<defs>
<clipPath id="clip0_428_74">
<rect width="19.2436" height="19.2436" fill="white" transform="translate(5.95642 5.95605)"/>
</clipPath>
</defs>
</svg>
