<svg width="21" height="21" viewBox="0 0 21 21" fill="none" xmlns="http://www.w3.org/2000/svg">
<g clip-path="url(#clip0_428_52)">
<path d="M6.84109 9.04259L10.5788 5.30528L14.3176 9.04409L16.4924 6.86967L10.5788 0.956055L4.66666 6.86779L6.84109 9.04221V9.04259ZM0.956421 10.5784L3.13122 8.40323L5.30565 10.5784L3.13085 12.7521L0.956421 10.5784ZM6.84109 12.1138L10.5788 15.8508L14.3176 12.112L16.4935 14.2853L10.5788 20.2008L4.66666 14.2883L4.66366 14.2849L6.84109 12.1135V12.1138ZM15.8511 10.5784L18.0256 8.40398L20.2011 10.5784L18.0267 12.7528L15.8511 10.5784Z" fill="#F3BA2F"/>
<path d="M12.7836 10.5784L10.5787 8.37012L8.94745 10.0007L8.75951 10.1886L8.37349 10.5746L8.37048 10.5776L8.37349 10.5806L10.5787 12.7855L12.7851 10.5791H12.7832" fill="#F3BA2F"/>
</g>
<defs>
<clipPath id="clip0_428_52">
<rect width="19.2436" height="19.2436" fill="white" transform="translate(0.956421 0.956055)"/>
</clipPath>
</defs>
</svg>
