<svg width="31" height="32" viewBox="0 0 31 32" fill="none" xmlns="http://www.w3.org/2000/svg">
<path fill-rule="evenodd" clip-rule="evenodd" d="M0 5.89473C0 5.43248 0.162931 4.98916 0.45295 4.6623C0.742969 4.33544 1.13632 4.15182 1.54647 4.15182C1.95662 4.15182 2.34997 4.33544 2.63999 4.6623C2.93001 4.98916 3.09294 5.43248 3.09294 5.89473V27.8958H29.4535C29.6617 27.8863 29.8694 27.9244 30.0642 28.0076C30.2591 28.0909 30.4369 28.2176 30.5872 28.3803C30.7375 28.5429 30.857 28.7381 30.9387 28.9541C31.0204 29.1701 31.0625 29.4025 31.0625 29.6373C31.0625 29.8721 31.0204 30.1045 30.9387 30.3205C30.857 30.5365 30.7375 30.7317 30.5872 30.8944C30.4369 31.057 30.2591 31.1838 30.0642 31.267C29.8694 31.3503 29.6617 31.3883 29.4535 31.3788H0V5.89473ZM27.2007 2.71597C27.4702 2.71647 27.7358 2.78885 27.9758 2.92721C28.2157 3.06557 28.4232 3.26597 28.5813 3.51203C28.7394 3.75809 28.8435 4.04281 28.8852 4.34293C28.927 4.64305 28.9051 4.95003 28.8213 5.23878C28.7376 5.52753 28.5944 5.78985 28.4035 6.00428C28.2126 6.21872 27.9794 6.37918 27.7229 6.47255C27.4664 6.56593 27.1939 6.58955 26.9278 6.54151C26.6616 6.49346 26.4094 6.37511 26.1916 6.19612L22.5461 9.3237C22.5563 9.40756 22.5613 9.49211 22.5613 9.57675C22.5443 10.0741 22.3571 10.5447 22.0389 10.8898C21.7207 11.2349 21.2962 11.4277 20.8546 11.4277C20.413 11.4277 19.9886 11.2349 19.6704 10.8898C19.3522 10.5447 19.1649 10.0741 19.1479 9.57675C19.1477 9.45556 19.1578 9.33463 19.1782 9.21565L17.3063 7.69451C16.953 8.09281 16.5336 8.40877 16.0719 8.62433C15.6103 8.8399 15.1155 8.95085 14.6158 8.95085C14.1161 8.95085 13.6212 8.8399 13.1596 8.62433C12.6979 8.40877 12.2785 8.09281 11.9252 7.69451C11.8521 7.61206 11.7814 7.52392 11.7158 7.43577L9.80607 8.96545C9.86434 9.16054 9.89333 9.36522 9.89185 9.57106C9.89135 9.95108 9.7909 10.3224 9.60321 10.6381C9.41551 10.9538 9.14899 11.1997 8.83733 11.3448C8.52566 11.4898 8.18284 11.5275 7.85219 11.453C7.52154 11.3785 7.2179 11.1952 6.97965 10.9263C6.7414 10.6574 6.57922 10.3149 6.51363 9.94214C6.44803 9.56938 6.48195 9.18307 6.6111 8.83203C6.74025 8.48099 6.95884 8.18097 7.23923 7.9699C7.51963 7.75883 7.84925 7.64618 8.18644 7.64618C8.42566 7.64571 8.66221 7.7029 8.88021 7.81393L11.0271 6.09092C10.8413 5.5013 10.7722 4.87303 10.8246 4.25015C10.8771 3.62726 11.0497 3.02483 11.3305 2.48508C11.6113 1.94534 11.9935 1.48134 12.4502 1.12562C12.9069 0.7699 13.4271 0.53106 13.9744 0.425844C14.5216 0.320629 15.0827 0.351585 15.6182 0.516541C16.1537 0.681497 16.6507 0.976462 17.0744 1.38076C17.4981 1.78506 17.8382 2.2889 18.0709 2.85698C18.3036 3.42505 18.4232 4.04361 18.4214 4.66929C18.4225 5.2741 18.3089 5.8722 18.0884 6.42358L19.9578 7.94472C20.2407 7.74635 20.569 7.64575 20.9022 7.65535C21.2353 7.66495 21.5586 7.78433 21.8322 7.99874L25.5054 4.85126C25.5015 4.78024 25.5015 4.70903 25.5054 4.63801C25.5054 4.12826 25.685 3.63938 26.0049 3.27893C26.3247 2.91847 26.7585 2.71597 27.2108 2.71597H27.2007ZM15.8936 3.86749C15.4092 3.80778 15.056 3.77935 14.8365 3.77935C14.7095 3.76971 14.582 3.77352 14.4556 3.79072C14.4398 3.7958 14.426 3.80669 14.4164 3.82164C14.4068 3.83658 14.402 3.85473 14.4026 3.87318C14.4036 3.89481 14.4101 3.91567 14.4212 3.9333C14.4324 3.95093 14.4478 3.9646 14.4657 3.97269C14.5801 4.01755 14.6973 4.05272 14.8163 4.07789C15.0055 4.12623 15.1645 4.16888 15.2856 4.21152C15.4068 4.25301 15.5249 4.30531 15.6388 4.3679C15.7388 4.41662 15.8258 4.49407 15.891 4.59252C16.0096 4.82843 16.0649 5.0981 16.05 5.36873C16.0654 5.55114 16.0454 5.73515 15.9914 5.90798C15.9374 6.08081 15.8506 6.23832 15.7371 6.36955C15.6522 6.48232 15.545 6.57095 15.424 6.62826C15.303 6.68556 15.1717 6.70992 15.0409 6.69937V7.13155H14.2159V6.7079C13.9352 6.69024 13.6574 6.63488 13.3884 6.54299L13.227 6.50319L13.2749 5.47677C13.7021 5.555 14.1338 5.59871 14.5666 5.60756C14.6375 5.61234 14.7086 5.60172 14.776 5.57629C14.7932 5.56793 14.8079 5.55404 14.8182 5.53635C14.8286 5.51866 14.834 5.49794 14.834 5.47677C14.834 5.45659 14.8281 5.43699 14.8171 5.42103C14.8061 5.40507 14.7908 5.39368 14.7734 5.38863C14.6637 5.35795 14.5525 5.33422 14.4404 5.31755C14.0888 5.29033 13.7504 5.15566 13.4616 4.92803C13.3678 4.80817 13.2969 4.66776 13.2535 4.5156C13.2101 4.36343 13.195 4.2028 13.2093 4.04377C13.2093 3.54336 13.3127 3.1908 13.5196 2.99746C13.6077 2.88735 13.7175 2.80218 13.8403 2.74883C13.963 2.69548 14.0951 2.67546 14.226 2.69038V2.19281H15.0434V2.67901C15.2868 2.69546 15.5289 2.73253 15.7674 2.7899L15.9364 2.82117L15.8936 3.86749ZM14.6322 1.09532C15.2583 1.09813 15.8697 1.30996 16.3891 1.70406C16.9085 2.09817 17.3127 2.65688 17.5506 3.30966C17.7885 3.96244 17.8494 4.68002 17.7257 5.37181C17.6021 6.0636 17.2993 6.69859 16.8556 7.1966C16.412 7.69461 15.8474 8.03331 15.2331 8.16996C14.6188 8.3066 13.9823 8.23506 13.4041 7.96436C12.8258 7.69365 12.3317 7.23593 11.9841 6.64897C11.6365 6.06202 11.4509 5.37214 11.4509 4.66645C11.4509 4.19628 11.5333 3.73074 11.6933 3.29654C11.8534 2.86234 12.0879 2.46803 12.3835 2.13624C12.679 1.80444 13.0298 1.54169 13.4157 1.36306C13.8016 1.18444 14.215 1.09345 14.6322 1.09532ZM25.6088 10.7112H28.8102C28.8992 10.7112 28.9846 10.751 29.0475 10.822C29.1104 10.8929 29.1458 10.9891 29.1458 11.0894V25.1151C29.1451 25.2152 29.1095 25.3109 29.0467 25.3817C28.984 25.4525 28.899 25.4925 28.8102 25.4933H25.5987C25.5099 25.4925 25.425 25.4525 25.3622 25.3817C25.2994 25.3109 25.2638 25.2152 25.2632 25.1151V11.0894C25.2632 10.9891 25.2985 10.8929 25.3615 10.822C25.4244 10.751 25.5097 10.7112 25.5987 10.7112H25.6088ZM19.264 15.5135H22.4654C22.5542 15.5142 22.6392 15.5543 22.7019 15.625C22.7647 15.6958 22.8003 15.7915 22.8009 15.8916V25.1151C22.8003 25.2152 22.7647 25.3109 22.7019 25.3817C22.6392 25.4525 22.5542 25.4925 22.4654 25.4933H19.264C19.2194 25.494 19.1751 25.4848 19.1337 25.4662C19.0922 25.4476 19.0545 25.4199 19.0226 25.3847C18.9907 25.3496 18.9653 25.3076 18.9478 25.2614C18.9304 25.2151 18.9212 25.1654 18.9209 25.1151V15.8916C18.9216 15.7915 18.9571 15.6958 19.0199 15.625C19.0827 15.5543 19.1676 15.5142 19.2564 15.5135H19.264ZM12.9268 10.7112H16.1282C16.2172 10.7112 16.3025 10.751 16.3654 10.822C16.4284 10.8929 16.4637 10.9891 16.4637 11.0894V25.1151C16.463 25.2152 16.4275 25.3109 16.3647 25.3817C16.3019 25.4525 16.217 25.4925 16.1282 25.4933H12.9268C12.838 25.4925 12.753 25.4525 12.6902 25.3817C12.6275 25.3109 12.5919 25.2152 12.5912 25.1151V11.0894C12.5912 10.9891 12.6266 10.8929 12.6895 10.822C12.7524 10.751 12.8378 10.7112 12.9268 10.7112ZM6.59204 16.301H9.79346C9.88224 16.3018 9.9672 16.3419 10.03 16.4126C10.0928 16.4834 10.1283 16.5791 10.129 16.6792V25.1151C10.1283 25.2152 10.0928 25.3109 10.03 25.3817C9.9672 25.4525 9.88224 25.4925 9.79346 25.4933H6.59204C6.50326 25.4925 6.4183 25.4525 6.35552 25.3817C6.29273 25.3109 6.25717 25.2152 6.25651 25.1151V16.6678C6.25976 16.5697 6.29646 16.4769 6.35897 16.4085C6.42147 16.3402 6.50496 16.3017 6.59204 16.301Z" fill="#16A79E"/>
</svg>
