<svg width="68" height="81" viewBox="0 0 68 81" fill="none" xmlns="http://www.w3.org/2000/svg">
<path d="M62.8748 69.6432L66.8412 65.5365C68.1658 64.1676 68.225 61.8834 66.9744 60.4254C65.7238 58.9755 63.637 58.9107 62.3124 60.2796L58.346 64.3863L54.6904 60.15C53.4398 58.7001 51.353 58.6353 50.0284 60.0042C48.7038 61.3731 48.6446 63.6573 49.8952 65.1072L53.5508 69.3435L49.5844 73.4502C48.2598 74.8191 48.2006 77.1033 49.4512 78.5532C50.7018 80.0031 52.7886 80.0679 54.1132 78.699L58.0796 74.5923L61.9276 79.0473C63.1782 80.4972 65.265 80.562 66.5896 79.1931C67.9142 77.8242 67.9734 75.54 66.7228 74.0901L62.8748 69.6432Z" fill="#447BAF"/>
<path d="M16.1512 15.746H16.5508C18.4304 15.746 19.9474 14.0774 19.9474 12.0281V4.52747C19.9474 2.47007 18.423 0.80957 16.5508 0.80957H16.1512C14.2716 0.80957 12.7546 2.47817 12.7546 4.52747V12.02C12.7546 14.0774 14.279 15.746 16.1512 15.746Z" fill="#16A79E"/>
<path d="M33.5486 15.746H33.9482C35.8278 15.746 37.3448 14.0774 37.3448 12.0281V4.52747C37.3448 2.47007 35.8204 0.80957 33.9482 0.80957H33.5486C31.669 0.80957 30.152 2.47817 30.152 4.52747V12.02C30.1446 14.0774 31.669 15.746 33.5486 15.746Z" fill="#16A79E"/>
<path d="M50.3392 15.746H50.7388C52.6184 15.746 54.1354 14.0774 54.1354 12.0281V4.52747C54.1354 2.47007 52.611 0.80957 50.7388 0.80957H50.3392C48.4596 0.80957 46.9426 2.47817 46.9426 4.52747V12.02C46.9426 14.0774 48.4596 15.746 50.3392 15.746Z" fill="#16A79E"/>
<path d="M49.4882 70.5348L47.4606 68.3154C44.8854 65.4966 44.8854 60.9201 47.4606 58.1013C50.0358 55.2825 54.2168 55.2825 56.792 58.1013L58.8196 60.3207L60.8472 58.1013C62.305 56.5056 64.266 55.8171 66.1678 56.0196V11.421C66.1678 9.36363 64.6434 7.70312 62.7712 7.70312H56.6144V12.1419C56.6144 16.038 53.7284 19.197 50.169 19.197C46.6096 19.197 43.7236 16.038 43.7236 12.1419V7.70312H39.8238V12.1419C39.8238 16.038 36.9378 19.197 33.3784 19.197C29.819 19.197 26.933 16.038 26.933 12.1419V7.70312H22.8852V12.1419C22.8852 16.038 19.9992 19.197 16.4398 19.197C12.8804 19.197 9.99445 16.038 9.99445 12.1419V7.70312H3.52685C1.64725 7.70312 0.130249 9.37173 0.130249 11.421V75.6054C0.130249 77.6628 1.65465 79.3233 3.52685 79.3233H45.6624C45.2258 77.0229 45.8252 74.5362 47.4532 72.7542L49.4882 70.5348ZM9.49865 28.8198C9.49865 26.7624 11.023 25.1019 12.8952 25.1019H53.5434C55.423 25.1019 56.94 26.7705 56.94 28.8198V29.2572C56.94 31.3146 55.4156 32.9751 53.5434 32.9751H12.9026C11.023 32.9751 9.50605 31.3065 9.50605 29.2572V28.8198H9.49865ZM38.0626 60.5232C38.0626 62.0541 36.923 63.3015 35.5244 63.3015H12.0368C10.6382 63.3015 9.49865 62.0541 9.49865 60.5232V60.1992C9.49865 58.6683 10.6382 57.4209 12.0368 57.4209H35.5244C36.923 57.4209 38.0626 58.6683 38.0626 60.1992V60.5232ZM44.9594 45.6597C44.9594 47.7171 43.435 49.3776 41.5628 49.3776H12.9026C11.023 49.3776 9.50605 47.709 9.50605 45.6597V45.2223C9.50605 43.1649 11.0304 41.5044 12.9026 41.5044H41.5554C43.435 41.5044 44.952 43.173 44.952 45.2223V45.6597H44.9594Z" fill="#16A79E"/>
</svg>
