<svg width="28" height="28" viewBox="0 0 28 28" fill="none" xmlns="http://www.w3.org/2000/svg">
<path d="M16.7951 1.27711e-06C19.357 -0.00122182 21.8418 0.876108 23.8352 2.48567C25.8286 4.09523 27.2101 6.33972 27.7492 8.84481C28.2883 11.3499 27.9525 13.9641 26.7978 16.2515C25.643 18.5389 23.7392 20.3612 21.4037 21.4144C20.6572 23.0652 19.5215 24.5103 18.0941 25.6257C16.6666 26.7411 14.99 27.4935 13.208 27.8184C11.4259 28.1433 9.59173 28.031 7.86262 27.4912C6.13351 26.9514 4.5611 26.0001 3.28026 24.7189C1.99942 23.4378 1.04837 21.865 0.508667 20.1355C-0.0310346 18.406 -0.143278 16.5713 0.181564 14.7888C0.506405 13.0064 1.25864 11.3294 2.37375 9.90156C3.48885 8.47375 4.93356 7.3378 6.58396 6.59111C7.47173 4.62636 8.90729 2.95949 10.7185 1.79041C12.5296 0.621323 14.6396 -0.000331956 16.7951 1.27711e-06ZM11.1954 8.40167C10.0923 8.40167 9.00005 8.61898 7.98096 9.04121C6.96187 9.46343 6.0359 10.0823 5.25592 10.8625C4.47595 11.6426 3.85723 12.5688 3.43511 13.5882C3.01299 14.6075 2.79573 15.7 2.79573 16.8033C2.79573 17.9067 3.01299 18.9992 3.43511 20.0185C3.85723 21.0378 4.47595 21.964 5.25592 22.7442C6.0359 23.5244 6.96187 24.1432 7.98096 24.5655C9.00005 24.9877 10.0923 25.205 11.1954 25.205C13.4231 25.205 15.5596 24.3198 17.1348 22.7442C18.71 21.1686 19.595 19.0316 19.595 16.8033C19.595 14.5751 18.71 12.4381 17.1348 10.8625C15.5596 9.28684 13.4231 8.40167 11.1954 8.40167ZM16.7951 2.80056C15.6089 2.79917 14.436 3.04972 13.3538 3.53565C12.2717 4.02157 11.305 4.73179 10.5178 5.61932C12.1001 5.52324 13.6848 5.76424 15.167 6.32638C16.6492 6.88852 17.9953 7.759 19.1161 8.88025C20.237 10.0015 21.1071 11.348 21.6689 12.8307C22.2308 14.3133 22.4715 15.8984 22.3753 17.4811C23.6481 16.3491 24.5469 14.8569 24.9523 13.2023C25.3578 11.5476 25.2507 9.80883 24.6455 8.21644C24.0402 6.62405 22.9653 5.25334 21.5632 4.28609C20.1612 3.31883 18.4983 2.80075 16.7951 2.80056Z" fill="#16A79E"/>
<path d="M10.944 22.176C10.0907 22.176 9.38667 22.0693 8.832 21.856C8.288 21.632 7.856 21.2907 7.536 20.832C7.216 20.3733 6.992 19.792 6.864 19.088C6.74667 18.3733 6.688 17.5253 6.688 16.544C6.688 15.552 6.74667 14.704 6.864 14C6.992 13.2853 7.216 12.6987 7.536 12.24C7.856 11.7813 8.29333 11.44 8.848 11.216C9.41333 10.992 10.1333 10.88 11.008 10.88C11.36 10.88 11.728 10.9013 12.112 10.944C12.496 10.9867 12.864 11.04 13.216 11.104C13.5787 11.1573 13.888 11.216 14.144 11.28L14.08 13.04C13.8667 12.9973 13.6 12.96 13.28 12.928C12.96 12.8853 12.6347 12.8533 12.304 12.832C11.9733 12.8107 11.664 12.8 11.376 12.8C10.864 12.8 10.448 12.864 10.128 12.992C9.808 13.12 9.55733 13.3333 9.376 13.632C9.20533 13.9307 9.088 14.32 9.024 14.8C8.96 15.2693 8.928 15.8507 8.928 16.544C8.928 17.2267 8.96 17.808 9.024 18.288C9.088 18.7573 9.20533 19.1413 9.376 19.44C9.54667 19.728 9.792 19.9413 10.112 20.08C10.4427 20.208 10.8693 20.272 11.392 20.272C11.8187 20.272 12.288 20.2507 12.8 20.208C13.3227 20.1547 13.7547 20.1067 14.096 20.064L14.144 21.808C13.888 21.8613 13.584 21.92 13.232 21.984C12.88 22.0373 12.5067 22.08 12.112 22.112C11.7173 22.1547 11.328 22.176 10.944 22.176Z" fill="#447BAF"/>
</svg>
