<svg width="29" height="30" viewBox="0 0 29 30" fill="none" xmlns="http://www.w3.org/2000/svg">
<path d="M15.5674 13.7165C13.2805 12.9544 12.1756 12.4765 12.1756 11.2623C12.1756 9.94482 13.6017 9.4669 14.5011 9.4669C16.1841 9.4669 16.8008 10.7457 16.9421 11.1977L18.972 10.3323C18.7793 9.75107 17.9185 7.85232 15.7087 7.43899V5.83732H13.1392V7.46482C9.95302 8.18815 9.94017 11.159 9.94017 11.2882C9.94017 14.2202 12.8309 15.0469 14.2441 15.5636C16.274 16.2869 17.1734 16.9457 17.1734 18.1857C17.1734 19.6452 15.8244 20.2652 14.6295 20.2652C12.2913 20.2652 11.6232 17.8498 11.5461 17.5657L9.41342 18.4311C10.2228 21.2598 12.3427 22.0219 13.1392 22.2544V23.9207H15.7087V22.319C16.2226 22.2027 19.4345 21.5569 19.4345 18.1598C19.4345 16.3644 18.6508 14.7886 15.5674 13.7165V13.7165ZM2.86114 26.504H0.291626V18.754H8.00018V21.3373H4.81398C6.88244 24.4502 10.4155 26.504 14.424 26.504C17.4906 26.504 20.4317 25.2792 22.6001 23.0991C24.7686 20.919 25.9868 17.9621 25.9868 14.879H28.5563C28.5563 22.7323 22.2353 29.0873 14.424 29.0873C9.64467 29.0873 5.41782 26.6977 2.86114 23.0552V26.504ZM0.291626 14.879C0.291626 7.02565 6.61264 0.670654 14.424 0.670654C19.2033 0.670654 23.4301 3.06024 25.9868 6.70274V3.25399H28.5563V11.004H20.8478V8.42065H24.034C21.9655 5.30774 18.4324 3.25399 14.424 3.25399C11.3573 3.25399 8.41627 4.47876 6.24782 6.65887C4.07937 8.83898 2.86114 11.7958 2.86114 14.879H0.291626Z" fill="#16A79E"/>
</svg>
