<svg width="31" height="26" viewBox="0 0 31 26" fill="none" xmlns="http://www.w3.org/2000/svg">
<path d="M20.1384 19.5132L23.4941 25.3257H21.2582L17.9025 19.5132H13.1091L9.75338 25.3257H7.5175L10.8733 19.5132H4.84375C4.58682 19.5132 4.34042 19.4111 4.15874 19.2294C3.97706 19.0478 3.875 18.8014 3.875 18.5444V2.07568H1.9375C1.68057 2.07568 1.43417 1.97362 1.25249 1.79194C1.07081 1.61027 0.96875 1.36386 0.96875 1.10693C0.96875 0.850005 1.07081 0.6036 1.25249 0.421924C1.43417 0.240248 1.68057 0.138184 1.9375 0.138184L29.0625 0.138184C29.3194 0.138184 29.5658 0.240248 29.7475 0.421924C29.9292 0.6036 30.0312 0.850005 30.0312 1.10693C30.0312 1.36386 29.9292 1.61027 29.7475 1.79194C29.5658 1.97362 29.3194 2.07568 29.0625 2.07568H27.125V18.5444C27.125 18.8014 27.0229 19.0478 26.8413 19.2294C26.6596 19.4111 26.4132 19.5132 26.1562 19.5132H20.1384ZM25.1875 2.07568H5.8125V17.5757H25.1875V2.07568ZM10.6562 9.82568C10.9132 9.82568 11.1596 9.92775 11.3413 10.1094C11.5229 10.2911 11.625 10.5375 11.625 10.7944V12.7319C11.625 12.9889 11.5229 13.2353 11.3413 13.4169C11.1596 13.5986 10.9132 13.7007 10.6562 13.7007C10.3993 13.7007 10.1529 13.5986 9.97124 13.4169C9.78956 13.2353 9.6875 12.9889 9.6875 12.7319V10.7944C9.6875 10.5375 9.78956 10.2911 9.97124 10.1094C10.1529 9.92775 10.3993 9.82568 10.6562 9.82568ZM15.5 7.88818C15.7569 7.88818 16.0033 7.99025 16.185 8.17192C16.3667 8.3536 16.4688 8.60001 16.4688 8.85693V12.7319C16.4688 12.9889 16.3667 13.2353 16.185 13.4169C16.0033 13.5986 15.7569 13.7007 15.5 13.7007C15.2431 13.7007 14.9967 13.5986 14.815 13.4169C14.6333 13.2353 14.5312 12.9889 14.5312 12.7319V8.85693C14.5312 8.60001 14.6333 8.3536 14.815 8.17192C14.9967 7.99025 15.2431 7.88818 15.5 7.88818ZM20.3438 5.95068C20.6007 5.95068 20.8471 6.05275 21.0288 6.23442C21.2104 6.4161 21.3125 6.66251 21.3125 6.91943V12.7319C21.3125 12.9889 21.2104 13.2353 21.0288 13.4169C20.8471 13.5986 20.6007 13.7007 20.3438 13.7007C20.0868 13.7007 19.8404 13.5986 19.6587 13.4169C19.4771 13.2353 19.375 12.9889 19.375 12.7319V6.91943C19.375 6.66251 19.4771 6.4161 19.6587 6.23442C19.8404 6.05275 20.0868 5.95068 20.3438 5.95068Z" fill="#16A79E"/>
</svg>
