<svg width="78" height="76" viewBox="0 0 78 76" fill="none" xmlns="http://www.w3.org/2000/svg">
<path fill-rule="evenodd" clip-rule="evenodd" d="M39 72.1999C58.385 72.1999 74.1 56.8878 74.1 37.9999C74.1 19.1121 58.385 3.79999 39 3.79999C19.6151 3.79999 3.9 19.1121 3.9 37.9999C3.9 56.8878 19.6151 72.1999 39 72.1999ZM39 75.9999C60.5397 75.9999 78 58.9873 78 37.9999C78 17.0126 60.5397 0 39 0C17.4603 0 0 17.0126 0 37.9999C0 58.9873 17.4603 75.9999 39 75.9999Z" fill="#16A79E"/>
<path d="M15.5999 60.0962C15.5999 58.1335 17.1053 56.4748 19.1099 56.2582C34.1541 54.6356 43.9138 54.7819 58.9249 56.2943C59.6745 56.371 60.385 56.6587 60.9695 57.1223C61.5541 57.586 61.9874 58.2055 62.2165 58.9051C62.4457 59.6047 62.4607 60.3542 62.2599 61.0621C62.059 61.7699 61.651 62.4055 61.0855 62.8911C43.3698 77.9371 33.2454 77.73 16.8479 62.9063C16.0484 62.1843 15.5999 61.1583 15.5999 60.0981V60.0962Z" fill="#16A79E"/>
<path fill-rule="evenodd" clip-rule="evenodd" d="M58.7247 58.1834C43.8325 56.6824 34.2132 56.5418 19.323 58.1473C18.3207 58.2556 17.5504 59.0897 17.5504 60.0986C17.5504 60.642 17.7825 61.1569 18.1744 61.5141C26.302 68.8595 32.4601 72.1788 38.4798 72.1997C44.5209 72.2206 51.0104 68.9279 59.8049 61.4609C60.0843 61.2186 60.2855 60.9024 60.3839 60.5508C60.4823 60.1993 60.4738 59.8274 60.3594 59.4804C60.2449 59.1334 60.0295 58.8263 59.7393 58.5964C59.4491 58.3665 59.0966 58.2237 58.7247 58.1853V58.1834ZM18.8959 54.3701C34.0981 52.7304 44.0002 52.8786 59.1283 54.4043C60.256 54.519 61.3249 54.9516 62.2042 55.6491C63.0834 56.3466 63.7349 57.2787 64.0788 58.3314C64.4227 59.3841 64.4442 60.5116 64.1405 61.576C63.8369 62.6404 63.2213 63.5954 62.3692 64.3242C53.448 71.9014 46.0184 76.0282 38.468 75.9997C30.8962 75.9731 23.7943 71.776 15.5244 64.2995C14.9322 63.7621 14.4602 63.1116 14.1378 62.3884C13.8154 61.6653 13.6494 60.8851 13.6504 60.0967C13.6476 58.6801 14.1812 57.3123 15.1491 56.2553C16.117 55.1983 17.4511 54.5264 18.8959 54.3682V54.3701Z" fill="#16A79E"/>
<path d="M54.5994 30.3997C54.5994 34.431 52.9558 38.2971 50.0303 41.1477C47.1047 43.9982 43.1368 45.5997 38.9994 45.5997C34.862 45.5997 30.8941 43.9982 27.9685 41.1477C25.043 38.2971 23.3994 34.431 23.3994 30.3997C23.3994 26.3684 25.043 22.5022 27.9685 19.6517C30.8941 16.8011 34.862 15.1997 38.9994 15.1997C43.1368 15.1997 47.1047 16.8011 50.0303 19.6517C52.9558 22.5022 54.5994 26.3684 54.5994 30.3997V30.3997Z" fill="#16A79E"/>
<path fill-rule="evenodd" clip-rule="evenodd" d="M38.9994 41.7997C42.1024 41.7997 45.0784 40.5986 47.2726 38.4607C49.4667 36.3228 50.6994 33.4231 50.6994 30.3997C50.6994 27.3762 49.4667 24.4766 47.2726 22.3387C45.0784 20.2008 42.1024 18.9997 38.9994 18.9997C35.8964 18.9997 32.9204 20.2008 30.7263 22.3387C28.5321 24.4766 27.2994 27.3762 27.2994 30.3997C27.2994 33.4231 28.5321 36.3228 30.7263 38.4607C32.9204 40.5986 35.8964 41.7997 38.9994 41.7997V41.7997ZM38.9994 45.5997C43.1368 45.5997 47.1047 43.9982 50.0303 41.1477C52.9558 38.2971 54.5994 34.431 54.5994 30.3997C54.5994 26.3684 52.9558 22.5022 50.0303 19.6517C47.1047 16.8011 43.1368 15.1997 38.9994 15.1997C34.862 15.1997 30.8941 16.8011 27.9685 19.6517C25.043 22.5022 23.3994 26.3684 23.3994 30.3997C23.3994 34.431 25.043 38.2971 27.9685 41.1477C30.8941 43.9982 34.862 45.5997 38.9994 45.5997V45.5997Z" fill="#16A79E"/>
</svg>
