<svg width="20" height="20" viewBox="0 0 20 20" fill="none" xmlns="http://www.w3.org/2000/svg">
<path d="M8.93394 9.55503L16.4659 8.30002C16.5525 8.28557 16.6338 8.24858 16.7016 8.19275C16.7693 8.13693 16.8212 8.06425 16.8519 7.98202L19.4489 1.02402C19.6969 0.384026 19.0279 -0.225975 18.4139 0.0820255L0.413944 9.08202C0.289534 9.14438 0.184923 9.24012 0.111818 9.35853C0.0387135 9.47694 -5.72205e-06 9.61336 -5.72205e-06 9.75252C-5.72205e-06 9.89169 0.0387135 10.0281 0.111818 10.1465C0.184923 10.2649 0.289534 10.3607 0.413944 10.423L18.4139 19.423C19.0279 19.73 19.6969 19.12 19.4489 18.481L16.8509 11.523C16.8202 11.4408 16.7683 11.3681 16.7006 11.3123C16.6328 11.2565 16.5515 11.2195 16.4649 11.205L8.93294 9.95002C8.88596 9.94252 8.84319 9.91852 8.81231 9.88232C8.78143 9.84612 8.76447 9.8001 8.76447 9.75252C8.76447 9.70494 8.78143 9.65893 8.81231 9.62273C8.84319 9.58653 8.88596 9.56252 8.93294 9.55503H8.93394Z" fill="#F8F8F8"/>
</svg>
