<svg width="23" height="23" viewBox="0 0 23 23" fill="none" xmlns="http://www.w3.org/2000/svg">
<path d="M13.2509 23H9.0649C8.80262 23 8.54821 22.9104 8.34385 22.746C8.13949 22.5816 7.99748 22.3523 7.94135 22.0961L7.4733 19.9295C6.84892 19.6559 6.25687 19.3138 5.70805 18.9095L3.5955 19.5822C3.34545 19.6619 3.07564 19.6537 2.83089 19.559C2.58613 19.4642 2.38116 19.2886 2.25 19.0613L0.152399 15.4376C0.0226164 15.2101 -0.0261009 14.9452 0.0142179 14.6864C0.0545368 14.4275 0.181505 14.19 0.374349 14.0128L2.0131 12.5177C1.93858 11.8405 1.93858 11.1572 2.0131 10.4799L0.374349 8.9884C0.181231 8.81104 0.054091 8.57334 0.0137655 8.31425C-0.0265599 8.05516 0.0223219 7.79007 0.152399 7.5624L2.2454 3.93645C2.37656 3.70911 2.58153 3.53348 2.82629 3.43872C3.07104 3.34395 3.34085 3.33576 3.5909 3.4155L5.70345 4.08825C5.98405 3.88125 6.27615 3.68805 6.57745 3.51325C6.8684 3.34995 7.1674 3.2016 7.4733 3.06935L7.9425 0.90505C7.99836 0.648827 8.14011 0.419391 8.34425 0.254781C8.54839 0.0901713 8.80266 0.000275961 9.0649 0H13.2509C13.5131 0.000275961 13.7674 0.0901713 13.9716 0.254781C14.1757 0.419391 14.3174 0.648827 14.3733 0.90505L14.8471 3.0705C15.1691 3.2131 15.4842 3.37295 15.7889 3.5512C16.073 3.71565 16.3478 3.8962 16.6123 4.09055L18.726 3.4178C18.9759 3.33835 19.2455 3.3467 19.49 3.44144C19.7345 3.53619 19.9393 3.71166 20.0704 3.93875L22.1634 7.5647C22.4302 8.03275 22.3382 8.625 21.9414 8.98955L20.3027 10.4845C20.3772 11.1618 20.3772 11.8451 20.3027 12.5223L21.9414 14.0174C22.3382 14.383 22.4302 14.9742 22.1634 15.4422L20.0704 19.0681C19.9392 19.2955 19.7343 19.4711 19.4895 19.5659C19.2448 19.6606 18.975 19.6688 18.7249 19.5891L16.6123 18.9163C16.064 19.3204 15.4723 19.6621 14.8482 19.9352L14.3733 22.0961C14.3172 22.3521 14.1754 22.5813 13.9712 22.7457C13.7671 22.91 13.513 22.9998 13.2509 23ZM11.1533 6.9C9.9333 6.9 8.76328 7.38464 7.90061 8.24731C7.03794 9.10998 6.5533 10.28 6.5533 11.5C6.5533 12.72 7.03794 13.89 7.90061 14.7527C8.76328 15.6154 9.9333 16.1 11.1533 16.1C12.3733 16.1 13.5433 15.6154 14.406 14.7527C15.2687 13.89 15.7533 12.72 15.7533 11.5C15.7533 10.28 15.2687 9.10998 14.406 8.24731C13.5433 7.38464 12.3733 6.9 11.1533 6.9Z" fill="#16A79E"/>
</svg>
