<svg width="24" height="20" viewBox="0 0 24 20" fill="none" xmlns="http://www.w3.org/2000/svg">
<path d="M2 6.12509H18.25L16.25 7.47509C16.1187 7.56373 16.008 7.67479 15.9244 7.80191C15.8408 7.92903 15.7858 8.06974 15.7626 8.21599C15.7393 8.36224 15.7484 8.51118 15.7891 8.6543C15.8298 8.79741 15.9015 8.9319 16 9.05009C16.1164 9.18981 16.2674 9.30322 16.441 9.38132C16.6146 9.45943 16.8059 9.50009 17 9.50009C17.2705 9.50009 17.5336 9.42114 17.75 9.27509L22.75 5.90009C22.9029 5.7951 23.0268 5.65978 23.1121 5.50466C23.1974 5.34953 23.2417 5.17879 23.2417 5.00572C23.2417 4.83264 23.1974 4.6619 23.1121 4.50677C23.0268 4.35165 22.9029 4.21633 22.75 4.11134L17.925 0.736341C17.6631 0.552844 17.3309 0.470499 17.0016 0.50742C16.6722 0.544341 16.3726 0.697505 16.1688 0.933216C15.9649 1.16893 15.8734 1.46788 15.9144 1.7643C15.9554 2.06073 16.1256 2.33034 16.3875 2.51384L18.35 3.87509H2C1.66848 3.87509 1.35054 3.99362 1.11612 4.2046C0.881696 4.41557 0.75 4.70172 0.75 5.00009C0.75 5.29846 0.881696 5.58461 1.11612 5.79559C1.35054 6.00656 1.66848 6.12509 2 6.12509V6.12509ZM22 14.0001H5.75L7.75 12.6501C8.01522 12.4711 8.19055 12.2046 8.23744 11.9092C8.28432 11.6138 8.19891 11.3138 8 11.0751C7.80109 10.8364 7.50497 10.6786 7.17678 10.6364C6.84859 10.5942 6.51522 10.6711 6.25 10.8501L1.25 14.2251C1.09712 14.3301 0.97321 14.4654 0.887921 14.6205C0.802632 14.7756 0.758262 14.9464 0.758262 15.1195C0.758262 15.2925 0.802632 15.4633 0.887921 15.6184C0.97321 15.7735 1.09712 15.9089 1.25 16.0138L6.075 19.3888C6.29319 19.5412 6.56131 19.6243 6.8375 19.6251C7.0284 19.6247 7.21665 19.5849 7.38783 19.5089C7.55901 19.4328 7.70855 19.3225 7.825 19.1863C8.02799 18.9518 8.11958 18.6545 8.07977 18.3594C8.03995 18.0643 7.87196 17.7953 7.6125 17.6113L5.65 16.2501H22C22.3315 16.2501 22.6495 16.1316 22.8839 15.9206C23.1183 15.7096 23.25 15.4235 23.25 15.1251C23.25 14.8267 23.1183 14.5406 22.8839 14.3296C22.6495 14.1186 22.3315 14.0001 22 14.0001Z" fill="#4BC8A6"/>
</svg>
