<svg width="100" height="24" viewBox="0 0 100 24" fill="none" xmlns="http://www.w3.org/2000/svg">
<path d="M0 0H88C94.6274 0 100 5.37258 100 12V12C100 18.6274 94.6274 24 88 24H0V0Z" fill="#D8D8D8"/>
<path d="M34.524 14.235V15H29.826C29.274 15 28.824 14.955 28.476 14.865C28.128 14.775 27.864 14.619 27.684 14.397C27.51 14.169 27.423 13.854 27.423 13.452C27.423 13.074 27.498 12.504 27.648 11.742L28.35 11.778L28.314 12.066C28.23 12.63 28.188 13.026 28.188 13.254C28.188 13.602 28.302 13.854 28.53 14.01C28.764 14.16 29.181 14.235 29.781 14.235H32.328V8.592H33.183V14.235H34.524ZM31.203 11.472L29.322 11.841L29.232 11.517L29.664 11.4C29.556 11.316 29.475 11.217 29.421 11.103C29.367 10.983 29.34 10.86 29.34 10.734C29.34 10.506 29.421 10.308 29.583 10.14C29.745 9.972 29.955 9.888 30.213 9.888C30.441 9.888 30.663 9.96 30.879 10.104L30.78 10.509C30.744 10.479 30.69 10.449 30.618 10.419C30.546 10.389 30.468 10.374 30.384 10.374C30.234 10.374 30.111 10.425 30.015 10.527C29.919 10.623 29.871 10.74 29.871 10.878C29.871 11.046 29.943 11.184 30.087 11.292L31.095 11.022L31.203 11.472ZM36.7194 10.5V15H34.5234V14.235H35.8644V10.5H36.7194ZM35.8914 15.72H36.7104V16.602H35.8914V15.72ZM39.908 14.235V15H38.198V8.592H39.053V14.235H39.908ZM47.6421 14.235V15H45.0861C44.7141 15 44.3811 14.88 44.0871 14.64C43.8651 14.88 43.5741 15 43.2141 15H39.9111V14.235H41.3421V10.95H42.1971V14.235H42.9351C43.1991 14.235 43.3911 14.124 43.5111 13.902C43.6371 13.68 43.7001 13.401 43.7001 13.065V10.95H44.5551V13.056C44.5551 13.398 44.5161 13.704 44.4381 13.974C44.5221 14.04 44.6241 14.1 44.7441 14.154C44.8641 14.208 44.9841 14.235 45.1041 14.235H45.9681V12.498C45.9681 12.078 45.9201 11.421 45.8241 10.527L46.5441 10.5C46.6161 10.854 46.6791 11.226 46.7331 11.616C46.7931 12 46.8231 12.294 46.8231 12.498V14.235H47.6421ZM50.5165 10.41C50.9905 10.41 51.3625 10.527 51.6325 10.761C51.9025 10.989 52.0375 11.379 52.0375 11.931V15H47.6455V14.235H51.1915V12.021C51.1915 11.445 50.8975 11.157 50.3095 11.157C50.0455 11.157 49.4245 11.205 48.4465 11.301L48.4195 10.698C48.7435 10.62 49.1065 10.554 49.5085 10.5C49.9165 10.44 50.2525 10.41 50.5165 10.41ZM62.8427 15H61.7987V15.333C61.7987 15.711 61.7147 16.05 61.5467 16.35C61.3787 16.65 61.1297 16.884 60.7997 17.052C60.4697 17.226 60.0737 17.313 59.6117 17.313H57.0827C56.6207 17.313 56.2247 17.226 55.8947 17.052C55.5707 16.884 55.3247 16.65 55.1567 16.35C54.9947 16.05 54.9137 15.708 54.9137 15.324C54.9137 14.826 55.0277 13.95 55.2557 12.696L56.0567 12.822L55.9937 13.218C55.9337 13.614 55.8767 13.995 55.8227 14.361C55.7747 14.721 55.7507 14.994 55.7507 15.18C55.7507 15.6 55.8587 15.933 56.0747 16.179C56.2967 16.425 56.6387 16.548 57.1007 16.548H59.5847C60.0467 16.548 60.3887 16.425 60.6107 16.179C60.8327 15.933 60.9437 15.603 60.9437 15.189V15H59.7017C59.2697 15 58.9307 14.943 58.6847 14.829C58.4447 14.715 58.2677 14.508 58.1537 14.208C58.0457 13.908 57.9917 13.47 57.9917 12.894C57.9917 12.294 58.0547 11.823 58.1807 11.481C58.3127 11.139 58.5317 10.89 58.8377 10.734C59.1497 10.578 59.5787 10.5 60.1247 10.5C60.3227 10.5 60.5537 10.509 60.8177 10.527C61.0877 10.539 61.3067 10.554 61.4747 10.572L61.7987 10.608V14.235H62.8427V15ZM58.8467 12.867C58.8467 13.245 58.8827 13.533 58.9547 13.731C59.0267 13.923 59.1407 14.055 59.2967 14.127C59.4527 14.199 59.6717 14.235 59.9537 14.235H60.9437V11.301C60.6257 11.271 60.3737 11.256 60.1877 11.256C59.8457 11.256 59.5757 11.31 59.3777 11.418C59.1857 11.52 59.0477 11.688 58.9637 11.922C58.8857 12.15 58.8467 12.465 58.8467 12.867ZM59.2607 8.79H60.0257V9.663H59.2607V8.79ZM60.4667 8.79H61.2227V9.663H60.4667V8.79ZM66.3788 14.235V15H62.8418V14.235H64.1828V10.5H65.0378V14.235H66.3788ZM63.6158 15.72H64.3808V16.584H63.6158V15.72ZM64.8218 15.72H65.5778V16.584H64.8218V15.72ZM68.571 10.5V15H66.375V14.235H67.716V10.5H68.571ZM67.77 7.665H68.508V8.484H67.77V7.665ZM67.158 8.808H67.923V9.663H67.158V8.808ZM68.364 8.808H69.12V9.663H68.364V8.808ZM74.5316 15H73.4066C73.3646 15.708 73.2176 16.257 72.9656 16.647C72.7196 17.037 72.3116 17.232 71.7416 17.232C71.4896 17.232 71.0156 17.184 70.3196 17.088V16.323C70.9076 16.419 71.3606 16.467 71.6786 16.467C71.8826 16.467 72.0476 16.431 72.1736 16.359C72.2996 16.287 72.3956 16.143 72.4616 15.927C72.5276 15.717 72.5606 15.408 72.5606 15H71.3276C70.6316 15 70.1726 14.787 69.9506 14.361C69.7346 13.935 69.6266 13.407 69.6266 12.777C69.6326 12.183 69.6956 11.709 69.8156 11.355C69.9416 11.001 70.1456 10.743 70.4276 10.581C70.7156 10.413 71.1056 10.329 71.5976 10.329C71.8736 10.329 72.1886 10.35 72.5426 10.392C72.9026 10.428 73.1966 10.47 73.4246 10.518V14.235H74.5316V15ZM70.4816 12.75C70.4816 13.182 70.5536 13.539 70.6976 13.821C70.8416 14.097 71.1446 14.235 71.6066 14.235H72.5696V11.157C72.2756 11.115 72.0146 11.094 71.7866 11.094C71.3006 11.094 70.9616 11.223 70.7696 11.481C70.5836 11.733 70.4876 12.156 70.4816 12.75ZM78.0683 14.235V15H74.5312V14.235H75.8723V10.5H76.7273V14.235H78.0683ZM75.3143 8.79H76.0793V9.663H75.3143V8.79ZM76.5203 8.79H77.2763V9.663H76.5203V8.79ZM80.2605 10.5V15H78.0645V14.235H79.4055V10.5H80.2605ZM79.4325 15.72H80.2515V16.602H79.4325V15.72ZM88.9816 14.235V15H88.6306C88.5226 15 88.4086 14.967 88.2886 14.901C88.1746 14.829 88.0726 14.736 87.9826 14.622V15H85.0756C84.4096 15 84.0766 15.411 84.0766 16.233C84.0766 16.623 84.1576 17.187 84.3196 17.925L83.5996 17.943C83.4016 17.073 83.3026 16.389 83.3026 15.891C83.3026 15.093 83.5666 14.58 84.0946 14.352C83.9926 13.83 83.9416 13.308 83.9416 12.786C83.9416 12.408 83.9686 12.027 84.0226 11.643C84.0766 11.253 84.1366 10.929 84.2026 10.671C84.3586 10.605 84.5806 10.545 84.8686 10.491C85.1626 10.437 85.4716 10.41 85.7956 10.41C86.5756 10.41 87.1336 10.593 87.4696 10.959C87.8116 11.325 87.9826 11.922 87.9826 12.75V13.866C88.0546 13.974 88.1446 14.064 88.2526 14.136C88.3666 14.202 88.4926 14.235 88.6306 14.235H88.9816ZM87.1276 14.235V12.732C87.1276 12.18 87.0106 11.784 86.7766 11.544C86.5486 11.298 86.1826 11.175 85.6786 11.175C85.4206 11.175 85.1686 11.202 84.9226 11.256C84.8326 11.808 84.7876 12.318 84.7876 12.786C84.7876 13.056 84.7996 13.326 84.8236 13.596C84.8536 13.86 84.8836 14.073 84.9136 14.235H87.1276ZM93.7505 10.608V15H88.9805V14.235H90.1505C90.0125 13.893 89.9435 13.413 89.9435 12.795C89.9435 12.201 90.0155 11.742 90.1595 11.418C90.3035 11.088 90.5315 10.854 90.8435 10.716C91.1615 10.578 91.6025 10.509 92.1665 10.509C92.6345 10.509 93.0575 10.53 93.4355 10.572L93.7505 10.608ZM90.7985 12.858C90.7985 13.248 90.8255 13.545 90.8795 13.749C90.9335 13.947 91.0025 14.109 91.0865 14.235H92.8955V11.292C92.5235 11.262 92.2625 11.247 92.1125 11.247C91.7525 11.247 91.4795 11.298 91.2935 11.4C91.1075 11.502 90.9785 11.667 90.9065 11.895C90.8345 12.123 90.7985 12.444 90.7985 12.858ZM91.0145 8.79H91.7795V9.663H91.0145V8.79ZM92.2205 8.79H92.9765V9.663H92.2205V8.79Z" fill="#767676"/>
<circle cx="13" cy="12" r="9" fill="#838383"/>
<path d="M8.5 12H15H17.5M13 21C17.9707 21 22 16.9707 22 12C22 7.0293 17.9707 3 13 3C8.0293 3 4 7.0293 4 12C4 16.9707 8.0293 21 13 21Z" stroke="#F8F8F8" stroke-width="2"/>
</svg>
