<svg width="41" height="37" viewBox="0 0 41 37" fill="none" xmlns="http://www.w3.org/2000/svg">
<path d="M37.962 10.5357C37.7095 8.80581 36.6974 6.9543 34.9951 5.41848C33.2938 3.88308 31.2426 2.96984 29.3262 2.74193C28.459 2.63856 27.3012 2.20638 26.6072 1.72566C25.0727 0.663811 22.9066 0 20.5 0C18.0933 0 15.9272 0.663811 14.3928 1.72566C13.6988 2.20597 12.5408 2.63856 11.6738 2.74193C9.75725 2.96984 7.70611 3.88315 6.00472 5.41848C4.30242 6.9543 3.29037 8.80574 3.03789 10.5357C2.92381 11.3182 2.44445 12.3627 1.91222 12.9886C0.735193 14.3728 0 16.3281 0 18.5C0 20.6718 0.735193 22.627 1.91222 24.0113C2.44491 24.6376 2.92381 25.6818 3.03789 26.4641C3.29045 28.1941 4.30242 30.0456 6.00472 31.5813C7.70611 33.1168 9.75725 34.0301 11.6738 34.2579C12.5408 34.3612 13.6988 34.7938 14.3928 35.2741C15.9267 36.336 18.0929 36.9999 20.5 36.9999C22.907 36.9999 25.0727 36.336 26.6072 35.2741C27.3012 34.7938 28.459 34.3612 29.3262 34.2579C31.2425 34.03 33.2938 33.1167 34.9951 31.5813C36.6974 30.0456 37.7095 28.1941 37.962 26.4641C38.076 25.6817 38.5555 24.6372 39.0876 24.0113C40.2647 22.627 40.9999 20.6721 40.9999 18.5C40.9999 16.3281 40.2647 14.3728 39.0876 12.9886C38.555 12.3627 38.076 11.3182 37.962 10.5357ZM33.5659 12.4425L18.8346 25.7366L16.4776 27.8637C15.8266 28.4513 14.7716 28.4513 14.1206 27.8637L11.7635 25.7366L7.43346 21.8294C6.78248 21.2419 6.78248 20.2898 7.43346 19.7023L9.79049 17.5753C10.4415 16.9878 11.4965 16.9878 12.1475 17.5753L15.2987 20.4189L28.8515 8.18834C29.5025 7.60087 30.5575 7.60087 31.2086 8.18834L33.5655 10.3154C34.2169 10.9029 34.2169 11.8554 33.5659 12.4425Z" fill="#16A79E"/>
</svg>
