<svg width="24" height="24" viewBox="0 0 24 24" fill="none" xmlns="http://www.w3.org/2000/svg">
<path d="M21 5.69895H2.25V4.93641L18.75 3.59433V4.93641H21V2.64878C21 0.97118 19.6635 -0.206188 18.0315 0.0302009L2.97 2.21718C1.3365 2.45509 0 4.02135 0 5.69895V20.9498C0 21.7588 0.31607 22.5346 0.87868 23.1066C1.44129 23.6786 2.20435 24 3 24H21C21.7956 24 22.5587 23.6786 23.1213 23.1066C23.6839 22.5346 24 21.7588 24 20.9498V8.74913C24 7.94017 23.6839 7.16434 23.1213 6.59233C22.5587 6.02031 21.7956 5.69895 21 5.69895ZM18.75 16.3837C18.4544 16.3836 18.1618 16.3243 17.8887 16.2092C17.6157 16.0941 17.3676 15.9255 17.1587 15.7129C16.9498 15.5004 16.7841 15.248 16.671 14.9703C16.558 14.6927 16.4999 14.3951 16.5 14.0946C16.5001 13.794 16.5584 13.4965 16.6716 13.2189C16.7848 12.9413 16.9507 12.6891 17.1598 12.4766C17.3688 12.2642 17.617 12.0957 17.8901 11.9808C18.1632 11.8659 18.4559 11.8068 18.7515 11.8069C19.3484 11.8071 19.9208 12.0484 20.3428 12.4777C20.7648 12.907 21.0017 13.4892 21.0015 14.0961C21.0013 14.703 20.764 15.285 20.3417 15.714C19.9195 16.143 19.3469 16.3839 18.75 16.3837Z" fill="#16A79E"/>
</svg>
